<svg width="78" height="24" viewBox="0 0 78 24" fill="none" xmlns="http://www.w3.org/2000/svg">
<path d="M45.608 18.5641C45.5555 18.5641 45.5023 18.568 45.4498 18.5766C45.3996 18.5845 45.355 18.5884 45.3174 18.5884C45.304 18.5884 45.2931 18.5884 45.2845 18.5868C45.2586 18.5375 45.1998 18.3831 45.1998 17.9945V11.7689C45.1998 11.0402 45.0768 10.4087 44.8355 9.89082C44.5887 9.36275 44.2408 8.93418 43.8013 8.61529C43.3774 8.30816 42.8768 8.08173 42.3119 7.94306C41.7681 7.80908 41.1836 7.7417 40.5756 7.7417C39.9214 7.7417 39.2923 7.81691 38.7047 7.96578C38.0967 8.12013 37.5529 8.36771 37.0875 8.70226C36.6127 9.04386 36.221 9.48967 35.9233 10.0271C35.7548 10.3319 35.624 10.6743 35.5354 11.0457C35.4532 11.3896 35.5315 11.7469 35.7517 12.0251C35.9718 12.304 36.3009 12.463 36.655 12.463C37.1878 12.463 37.6469 12.0987 37.7723 11.5777C37.8279 11.3458 37.9047 11.1421 37.9987 10.972C38.146 10.7064 38.3356 10.4925 38.5605 10.3366C38.794 10.1744 39.0745 10.0585 39.3934 9.99111C39.7428 9.91746 40.1338 9.87985 40.5537 9.87985C41.4485 9.87985 42.0753 10.0522 42.4153 10.3923C42.76 10.737 42.9277 11.1726 42.9277 11.7242C42.9277 11.8966 42.905 12.0901 42.8611 12.2993C42.8407 12.3964 42.8008 12.4474 42.7162 12.4873C42.5344 12.5719 42.2892 12.6409 41.9867 12.6926C41.6514 12.7498 41.3584 12.7929 41.117 12.8219L39.2774 13.0655C37.8428 13.2559 36.742 13.679 36.0063 14.323C35.2526 14.9827 34.8702 15.8767 34.8702 16.9783C34.8702 17.6114 34.9917 18.17 35.2306 18.6393C35.4665 19.1031 35.7924 19.5012 36.1975 19.8224C36.5971 20.1389 37.064 20.3755 37.5866 20.5244C38.0904 20.6686 38.6208 20.7414 39.163 20.7414C40.0648 20.7414 40.9173 20.5644 41.6968 20.2141C42.1889 19.9932 42.6519 19.7049 43.0773 19.3539C43.1142 19.4683 43.1596 19.5779 43.2145 19.6814C43.3234 19.8898 43.4707 20.0723 43.6509 20.2228C43.8467 20.3857 44.0982 20.4907 44.3983 20.5346C44.6177 20.5832 44.8465 20.6082 45.08 20.6082C45.3134 20.6082 45.5571 20.5722 45.7992 20.5001L45.8932 20.4727C46.3108 20.3497 46.5913 19.9736 46.5913 19.5372C46.5913 18.9997 46.1502 18.5625 45.6088 18.5625L45.608 18.5641ZM42.9285 15.7427C42.9285 16.2316 42.8298 16.6547 42.6362 17.001C42.4372 17.356 42.1693 17.6521 41.8402 17.8817C41.4978 18.1206 41.099 18.3016 40.654 18.4192C40.1949 18.5406 39.7162 18.6025 39.2296 18.6025C38.9632 18.6025 38.696 18.5672 38.4367 18.4975C38.1946 18.4325 37.9807 18.3322 37.8013 18.199C37.6297 18.0721 37.4895 17.9091 37.3837 17.7132C37.2826 17.5275 37.2317 17.2948 37.2317 17.023C37.2317 16.3962 37.4354 15.9668 37.8734 15.6714C38.3678 15.3377 39.0886 15.1347 40.0162 15.0674C40.6007 15.0227 41.1883 14.9624 41.7642 14.8879C42.1528 14.8378 42.5438 14.7524 42.93 14.6317V15.7427H42.9285ZM34.1408 10.8874C34.2278 11.4719 34.2717 12.0776 34.2717 12.6887V19.4573C34.2717 20.095 33.7522 20.6145 33.1144 20.6145C32.4767 20.6145 31.9572 20.095 31.9572 19.4573V11.982C31.9572 11.2384 31.8076 10.6579 31.5137 10.2567C31.2521 9.90101 30.7099 9.7208 29.9013 9.7208C29.4735 9.7208 29.0544 9.81639 28.6571 10.0052C28.2638 10.1925 27.9112 10.4863 27.6096 10.8804C27.4874 11.0394 27.3839 11.2314 27.3017 11.4515C27.2116 11.6944 27.1371 11.9514 27.0815 12.2154C27.0251 12.4818 26.9859 12.7529 26.9648 13.0209C26.9428 13.2959 26.9319 13.5521 26.9319 13.7817V19.4565C26.9319 20.0943 26.4124 20.6137 25.7746 20.6137C25.1369 20.6137 24.6174 20.0943 24.6174 19.4565V11.9812C24.6174 11.2376 24.4678 10.6571 24.174 10.2559C23.9123 9.90022 23.3701 9.72002 22.5608 9.72002C22.133 9.72002 21.7146 9.81561 21.3166 10.0044C20.9233 10.1917 20.5707 10.4855 20.269 10.8804C20.1468 11.0386 20.0434 11.2314 19.9619 11.4515C19.8718 11.6944 19.7974 11.9514 19.7417 12.2162C19.6853 12.4826 19.6462 12.7537 19.625 13.0217C19.6031 13.2967 19.5921 13.5529 19.5921 13.7824V19.4573C19.5921 20.095 19.0726 20.6145 18.4349 20.6145C17.7971 20.6145 17.2776 20.095 17.2776 19.4573V9.01958C17.2776 8.38181 17.7971 7.86236 18.4349 7.86236C18.9904 7.86236 19.455 8.25567 19.5662 8.77748C19.8256 8.52754 20.1186 8.31286 20.4414 8.13658C21.1622 7.74248 21.9598 7.54269 22.8107 7.54269C23.4038 7.54269 23.9201 7.61164 24.3456 7.74797C24.7757 7.88586 25.1502 8.07625 25.4589 8.31443C25.7668 8.55183 26.0262 8.83389 26.2299 9.15277C26.2635 9.20526 26.2965 9.25933 26.3286 9.31417C26.6906 8.83154 27.1277 8.44449 27.6268 8.16322C28.357 7.75188 29.1977 7.54347 30.127 7.54347C31.0562 7.54347 31.7347 7.69782 32.2831 8.00182C32.8332 8.30738 33.2641 8.71793 33.5649 9.22172C33.8533 9.70592 34.0468 10.2661 34.1392 10.8874H34.1408ZM74.9946 8.77199C74.9946 9.39487 74.5229 9.91041 73.8977 9.97231C73.4785 10.0138 73.1173 10.111 72.8235 10.2622C72.3957 10.4831 72.0526 10.7832 71.8026 11.1538C71.5433 11.5393 71.3607 12.0055 71.2597 12.539C71.1515 13.1071 71.0975 13.7104 71.0975 14.3309V19.4361C71.0975 20.0739 70.578 20.5934 69.9402 20.5934C69.3025 20.5934 68.783 20.0739 68.783 19.4361V8.99764C68.783 8.35987 69.3025 7.84042 69.9402 7.84042C70.531 7.84042 71.0199 8.28544 71.0889 8.85818C71.3325 8.56672 71.6005 8.3301 71.8896 8.15068C72.3691 7.85295 72.9567 7.65943 73.6376 7.57325C73.6877 7.56698 73.7386 7.56384 73.7888 7.56384C74.4532 7.56384 74.9938 8.10524 74.9938 8.77121L74.9946 8.77199ZM56.9632 18.8908C57.1912 19.2387 57.2092 19.6649 57.0118 20.0308C56.8144 20.3967 56.4477 20.6153 56.0317 20.6153C55.6595 20.6153 55.314 20.4312 55.1071 20.1225L51.1881 14.2847L49.5091 15.8783V19.4581C49.5091 20.0958 48.9896 20.6153 48.3518 20.6153C47.7141 20.6153 47.1946 20.0958 47.1946 19.4581V4.41577C47.1946 3.778 47.7141 3.25854 48.3518 3.25854C48.9896 3.25854 49.5091 3.778 49.5091 4.41577V12.825L54.3064 8.1781C54.5164 7.9744 54.7937 7.86236 55.0868 7.86236C55.5537 7.86236 55.9525 8.13109 56.1272 8.56437C56.302 8.99764 56.2017 9.46774 55.8656 9.79132L52.8836 12.666L56.964 18.89L56.9632 18.8908ZM62.6569 7.54347C61.759 7.54347 60.9426 7.72054 60.2281 8.0692C59.5174 8.41629 58.9071 8.8997 58.4143 9.50613C57.9285 10.1031 57.5501 10.8067 57.2884 11.5996C57.0298 12.3847 56.8982 13.234 56.8982 14.124C56.8982 15.0141 57.0087 15.8477 57.2273 16.6179C57.4506 17.4084 57.8008 18.1065 58.267 18.6934C58.7394 19.2888 59.3498 19.7636 60.0808 20.1045C60.8071 20.4437 61.6744 20.6153 62.6569 20.6153C63.4318 20.6153 64.1267 20.5087 64.723 20.2995C65.3247 20.0888 65.8551 19.7856 66.2986 19.3993C66.7365 19.0185 67.1063 18.5665 67.3978 18.0556C67.5075 17.8637 67.6101 17.6631 67.7034 17.4578C67.8656 17.1005 67.8358 16.6892 67.6227 16.3586C67.408 16.0248 67.0437 15.8258 66.648 15.8258C66.1646 15.8258 65.7298 16.1274 65.566 16.5756C65.3686 17.1186 65.0497 17.555 64.6188 17.8723C64.0828 18.2679 63.4231 18.4685 62.6569 18.4685C62.0975 18.4685 61.6007 18.362 61.1808 18.152C60.7577 17.9404 60.4043 17.656 60.1317 17.3066C59.852 16.9485 59.6365 16.5168 59.4908 16.0217C59.3834 15.655 59.3137 15.2664 59.2832 14.8629H67.0241C67.3422 14.8629 67.6383 14.7359 67.8585 14.5048C68.0771 14.2753 68.1938 13.9619 68.1782 13.6445C68.0896 11.8268 67.6101 10.3805 66.7514 9.34629C65.758 8.1499 64.3806 7.54269 62.6561 7.54269L62.6569 7.54347ZM59.3443 12.8062C59.4077 12.4912 59.497 12.1872 59.6107 11.8989C59.7822 11.4617 60.0126 11.0739 60.2954 10.7456C60.5704 10.4259 60.9089 10.1658 61.2999 9.97309C61.6838 9.78427 62.1398 9.68868 62.6569 9.68868C63.174 9.68868 63.6394 9.78192 64.0335 9.96604C64.4268 10.1502 64.7566 10.3993 65.0144 10.7072C65.2761 11.0206 65.4782 11.399 65.6146 11.8331C65.7109 12.1395 65.7744 12.4662 65.805 12.8054H59.3451L59.3443 12.8062Z" fill="black"/>
<path d="M14.1491 12.033H10.3225C9.79287 12.033 9.36274 12.4639 9.36274 12.9927C9.36274 13.5216 9.79366 13.9525 10.3225 13.9525H14.1491C14.5197 13.9525 14.8213 14.2542 14.8213 14.6248C14.8213 14.9953 14.5197 15.297 14.1491 15.297H13.7268C13.1972 15.297 12.767 15.7279 12.767 16.2568V17.8606C12.767 18.2312 12.4654 18.5328 12.0948 18.5328H11.982C11.6114 18.5328 11.3097 18.2312 11.3097 17.8606V16.2568C11.3097 15.7271 10.8788 15.297 10.3499 15.297H5.02218C4.64532 15.297 4.32487 15.0925 4.1666 14.7509C4.00755 14.4085 4.0577 14.0324 4.30136 13.7441L11.1021 5.68587C11.2909 5.46179 11.5283 5.34818 11.808 5.34818C11.9232 5.34818 12.0407 5.36855 12.1481 5.40773C12.4474 5.51742 12.7678 5.80731 12.7678 6.29386V10.115C12.7678 10.6446 13.1987 11.0747 13.7276 11.0747C14.2564 11.0747 14.6874 10.6438 14.6874 10.115V6.29386C14.6874 5.07788 13.9493 4.02173 12.807 3.60412C12.4842 3.48582 12.1496 3.42627 11.8119 3.42627C10.976 3.42627 10.1831 3.79843 9.63539 4.44638L2.83466 12.5046C2.10758 13.3657 1.95088 14.5362 2.42568 15.5579C2.90047 16.5796 3.89551 17.215 5.02296 17.215H9.39094V17.859C9.39094 19.2881 10.5536 20.4508 11.9827 20.4508H12.0956C13.5247 20.4508 14.6874 19.2881 14.6874 17.859V17.1594C15.872 16.9094 16.7417 15.8541 16.7417 14.6232C16.7417 13.1941 15.579 12.0314 14.1499 12.0314L14.1491 12.033Z" fill="url(#paint0_radial_4231_1260)"/>
<defs>
<radialGradient id="paint0_radial_4231_1260" cx="0" cy="0" r="1" gradientUnits="userSpaceOnUse" gradientTransform="translate(9.44735 11.957) scale(12.6879 13.7029)">
<stop stop-color="#DADADA"/>
<stop offset="1" stop-color="#575756"/>
</radialGradient>
</defs>
</svg>
