<svg width="44" height="30" viewBox="0 0 44 30" fill="none" xmlns="http://www.w3.org/2000/svg">
<path fill-rule="evenodd" clip-rule="evenodd" d="M43.9091 26.25C43.9091 28.3125 42.2727 30 40.2727 30H3.90907C1.90907 30 0.272705 28.3125 0.272705 26.25V3.75C0.272705 1.6875 1.90907 0 3.90907 0H40.2727C42.2727 0 43.9091 1.6875 43.9091 3.75V26.25Z" fill="#129AD7"/>
<path d="M9.37446 13.1782L10.46 15.7088H8.20392L9.37446 13.1782ZM29.3129 17.1427H25.54V15.7716H29.3129V14.5252H25.54V13.4036H29.3129V12.3439L32.1118 15.1738L29.3129 18.0167V17.1427ZM33.222 14.1751L31.3726 12.1554H23.95V18.389H31.1268L33.1617 16.3444L35.2086 18.389H37.1202L34.1979 15.2348L37.207 12.1554H35.2095L33.222 14.1751ZM22.5309 12.1554H19.9413L17.9931 16.3324L15.8969 12.1554H13.3073V18.2024L10.6318 12.1554H8.20301L5.34199 18.389H7.09278L7.67211 16.9681H11.001L11.6671 18.389H14.8854V13.3149L17.1662 18.389H18.6702L20.9391 13.4018V18.389H22.53L22.5309 12.1554ZM8.79878 18.2597L8.21671 19.6363H3L7.11745 10.9091H16.9514L17.9438 12.8363L18.8713 10.9091H22.3646H24.1254H32.1292L33.2622 12.1074L34.4794 10.9091H40.6364L36.2649 15.2625L40.4472 19.6363H34.4894L33.1562 18.3512L31.834 19.6363H24.1254H22.3646H10.5669L9.92729 18.2597H8.79878Z" fill="white"/>
</svg>
