<svg width="131" height="154" viewBox="0 0 131 154" fill="none" xmlns="http://www.w3.org/2000/svg">
<path d="M97.5292 66.9064C91.9025 65.9791 91.0766 65.9158 90.4753 65.3082C90.0006 64.8336 89.8266 63.3905 88.1209 58.805C87.8171 57.8462 89.7696 58.2101 90.9911 57.9411C93.7886 57.612 96.4975 56.6468 99.1304 55.6499C111.172 50.7449 126.919 34.5422 116.346 21.6339C109.874 15.0706 98.8456 16.0547 90.7538 18.5516C81.1936 20.6117 85.5544 22.8048 85.2854 7.67177C85.355 5.23821 85.2854 2.84895 84.6462 0.488175C84.105 -1.31247 81.3297 2.40275 80.3265 3.01351C75.8929 6.79835 71.1207 10.7667 65.5985 12.7351C65.0479 12.8459 63.8485 13.4028 64.453 14.0674C64.6175 15.0737 64.8675 16.1149 64.9815 17.1307C65.4245 21.0896 65.6808 25.0801 65.3201 29.0643C64.9213 30.4852 62.9688 30.4283 62.1049 31.5422C59.434 32.9852 57.0542 34.8966 54.5637 36.6277C43.5541 45.3904 30.9369 55.2575 25.2312 68.4222C22.2881 75.2577 26.9211 81.3685 34.0667 81.821C39.8579 82.09 45.2155 79.1628 49.725 75.8305C60.7694 67.669 69.646 56.6974 76.1366 44.6499C76.9594 43.1594 77.4721 41.5707 77.9815 39.9536C78.0543 39.7606 78.1556 39.5866 78.4088 39.6119C82.7601 38.7163 92.2253 36.6878 92.2253 43.4726C90.7601 49.4031 84.3613 53.055 78.5069 53.1278C77.8043 53.1373 77.4024 53.7354 77.2157 54.3367C76.7853 55.0392 74.9942 56.5075 76.0227 57.1595C78.2537 58.6183 79.6714 61.2006 79.9088 63.8335C79.9689 64.3937 80.6208 65.5614 79.9816 65.881C48.57 68.6216 18.8767 98.5079 5.13294 125.423C1.93039 132.442 -5.14878 147.619 6.23738 150.378C19.0001 154.508 32.4654 147.651 43.1459 140.632C59.858 129.328 73.9752 113.929 83.798 96.3369C86.9436 89.6628 90.8108 82.1058 89.6082 74.5741C89.374 74.0551 89.931 73.4792 90.4057 73.7988C115.45 74.2134 131.336 97.0743 130.995 95.7167C129.469 89.6185 120.627 70.7133 97.5323 66.9064M59.3453 47.7322C55.8295 55.8873 50.2662 62.9918 43.763 69.0013C40.8231 71.2039 38.2249 74.5646 34.2534 74.7672C29.6046 74.821 32.0192 68.9444 33.5983 66.6848C36.3483 61.9316 40.7281 58.419 44.7725 54.7987C48.8136 51.3556 53.2409 48.4569 57.9688 46.0676C60.5131 44.5708 60.0004 45.7606 59.3422 47.7353M79.8645 77.2893C76.3106 92.2072 66.1429 105.761 52.5257 112.97C49.1143 114.777 35.399 122.258 35.1996 114.698C37.187 100.445 60.32 81.5077 73.4499 76.995C75.3834 76.2071 77.4183 75.7672 79.4183 75.2039C80.9721 74.8178 79.7031 76.5014 79.8645 77.2862" fill="#242424"/>
<path d="M59.3135 148.056H59.285C58.7628 147.271 57.8134 146.771 56.5951 146.73C54.5634 146.663 53.0413 148.113 52.9748 150.198C52.9052 152.284 54.3261 153.818 56.3577 153.885C57.6647 153.929 58.6742 153.432 59.2375 152.597H59.266L59.2533 153.834L60.1141 153.863L60.4559 143.578L59.4622 143.546L59.3135 148.059V148.056ZM56.535 153.008C54.9906 152.958 53.9305 151.818 53.9811 150.233C54.0349 148.647 55.171 147.565 56.7122 147.616C58.2565 147.666 59.3166 148.821 59.2628 150.407C59.209 151.992 58.0761 153.059 56.5318 153.008H56.535Z" fill="#242424"/>
<path d="M69.959 149.378C69.7533 147.391 68.2438 146.23 66.1172 146.451C64.0065 146.67 62.6805 148.299 62.8989 150.391C63.1235 152.54 64.8198 153.784 67.2248 153.534C68.3166 153.42 69.247 153.011 69.8103 152.407L69.7059 151.397H69.6616C69.0508 152.132 68.2122 152.543 67.1647 152.651C65.4527 152.828 64.2185 152.024 63.9337 150.578L70.0192 149.945L69.959 149.375V149.378ZM63.8482 149.733C63.9368 148.439 64.8672 147.47 66.2248 147.328C67.671 147.179 68.747 147.91 69.016 149.195L63.8482 149.733Z" fill="#242424"/>
<path d="M74.7727 148.1C73.4815 148.318 73.0195 148.166 72.8866 147.578C72.7284 146.875 73.2948 146.22 74.2347 146.005C75.2189 145.783 75.9974 145.863 76.5543 146.233L76.5986 146.223L76.3645 145.192C75.8075 144.954 74.9531 144.939 74.01 145.151C72.4879 145.496 71.6524 146.575 71.9309 147.806C72.1967 148.983 72.9214 149.359 74.7632 149.078C76.1461 148.869 76.6303 149.046 76.779 149.708C76.9404 150.426 76.3835 151.049 75.3676 151.277C74.2663 151.527 73.3233 151.394 72.6493 150.897L72.6049 150.907L72.8486 151.983C73.5385 152.34 74.4626 152.385 75.5923 152.132C77.1999 151.768 78.0354 150.749 77.7506 149.489C77.4626 148.214 76.6809 147.787 74.7727 148.1Z" fill="#242424"/>
<path d="M83.0131 138.894L84.5479 143.141L84.5194 143.151C83.7441 142.619 82.6745 142.505 81.5289 142.916C79.6143 143.606 78.7409 145.518 79.4529 147.48C80.1618 149.442 82.0479 150.34 83.9624 149.647C85.1903 149.204 85.9466 148.369 86.1618 147.385L86.1903 147.375L86.6365 148.527L87.4466 148.236L83.9498 138.556L83.0131 138.894ZM85.3738 145.344C85.9118 146.837 85.2536 148.245 83.8011 148.771C82.3485 149.296 80.9403 148.632 80.4023 147.138C79.8643 145.644 80.5162 144.22 81.9688 143.695C83.4213 143.169 84.8359 143.847 85.3738 145.34V145.344Z" fill="#242424"/>
<path d="M95.4275 142.385C95.13 143.287 94.5034 143.983 93.5699 144.47C92.0446 145.268 90.6015 144.98 89.8009 143.739L95.2218 140.901L94.956 140.391C94.0287 138.619 92.1996 138.1 90.304 139.094C88.4243 140.078 87.7945 142.084 88.7724 143.945C89.7756 145.859 91.8104 146.388 93.956 145.264C94.9307 144.755 95.6427 144.033 95.9433 143.261L95.4718 142.363L95.4338 142.385H95.4275ZM89.4021 142.983C89.0066 141.745 89.5129 140.502 90.7218 139.869C92.0097 139.195 93.2819 139.476 94.0066 140.571L89.4021 142.983Z" fill="#242424"/>
<path d="M100.668 128.825L99.0067 132.692L99.6807 133.524L101.247 129.869L106.659 136.537L107.453 135.888L101.301 128.309L100.668 128.825Z" fill="#242424"/>
<path d="M112.985 123.014C110.751 120.992 108.406 120.976 106.614 122.957C105.149 124.574 105.156 126.543 106.614 127.866C108.01 129.128 109.864 128.983 111.251 127.454C112.225 126.375 112.63 125.138 112.497 124.017L112.516 123.995C114.406 125.783 114.64 127.698 113.165 129.328C112.447 130.122 111.662 130.552 110.858 130.584L110.817 130.628L111.624 131.359C112.339 131.245 113.143 130.733 113.899 129.894C115.792 127.802 115.447 125.245 112.982 123.017L112.985 123.014ZM110.662 126.72C109.646 127.843 108.323 127.989 107.311 127.071C106.263 126.125 106.263 124.723 107.32 123.555C108.494 122.255 110.08 122.128 111.551 123.217C111.909 124.4 111.57 125.717 110.662 126.717V126.72Z" fill="#242424"/>
<path d="M121.868 115.587L121.092 115.077L120.286 116.305L114.599 112.565L113.994 113.483L116.494 122.179L117.219 122.657L120.498 117.669L122.194 118.783L122.757 117.926L121.061 116.812L121.868 115.584V115.587ZM117.137 121.097L115.115 114.134L119.722 117.163L117.137 121.097Z" fill="#242424"/>
<path d="M125.434 105.521C123.722 104.739 121.998 105.435 121.14 107.312C120.536 108.635 120.523 109.935 120.988 110.967L120.975 110.995C118.634 109.859 117.836 108.106 118.748 106.106C119.194 105.134 119.811 104.486 120.567 104.21L120.593 104.157L119.602 103.704C118.953 104.027 118.343 104.761 117.874 105.786C116.7 108.353 117.801 110.685 120.824 112.065C123.564 113.318 125.805 112.628 126.915 110.198C127.824 108.214 127.225 106.337 125.434 105.521ZM126.061 109.84C125.333 111.435 123.862 112.036 122.131 111.438C121.434 110.416 121.358 109.062 121.918 107.831C122.548 106.454 123.763 105.916 125.007 106.483C126.292 107.068 126.713 108.407 126.061 109.837V109.84Z" fill="#242424"/>
</svg>
