<svg width="131" height="154" viewBox="0 0 131 154" fill="none" xmlns="http://www.w3.org/2000/svg">
<path d="M97.5245 66.9064C91.8979 65.9791 91.0719 65.9158 90.4707 65.3082C89.996 64.8336 89.8219 63.3905 88.1162 58.805C87.8124 57.8462 89.765 58.2101 90.9865 57.9411C93.784 57.612 96.4929 56.6468 99.1258 55.6499C111.167 50.7449 126.914 34.5422 116.341 21.6339C109.87 15.0706 98.841 16.0547 90.7492 18.5516C81.189 20.6117 85.5497 22.8048 85.2808 7.67177C85.3504 5.23821 85.2808 2.84895 84.6415 0.488175C84.1004 -1.31247 81.325 2.40275 80.3219 3.01351C75.8883 6.79835 71.1161 10.7667 65.5939 12.7351C65.0433 12.8459 63.8439 13.4028 64.4483 14.0674C64.6129 15.0737 64.8629 16.1149 64.9768 17.1307C65.4199 21.0896 65.6762 25.0801 65.3154 29.0643C64.9167 30.4852 62.9641 30.4283 62.1002 31.5422C59.4293 32.9852 57.0495 34.8966 54.559 36.6277C43.5495 45.3904 30.9323 55.2575 25.2265 68.4222C22.2835 75.2577 26.9164 81.3685 34.062 81.821C39.8532 82.09 45.2109 79.1628 49.7204 75.8305C60.7648 67.669 69.6414 56.6974 76.132 44.6499C76.9548 43.1594 77.4674 41.5707 77.9769 39.9536C78.0497 39.7606 78.151 39.5866 78.4041 39.6119C82.7554 38.7163 92.2207 36.6878 92.2207 43.4726C90.7555 49.4031 84.3567 53.055 78.5022 53.1278C77.7997 53.1373 77.3978 53.7354 77.2111 54.3367C76.7807 55.0392 74.9895 56.5075 76.018 57.1595C78.2491 58.6183 79.6668 61.2006 79.9041 63.8335C79.9643 64.3937 80.6162 65.5614 79.9769 65.881C48.5653 68.6216 18.8721 98.5079 5.1283 125.423C1.92575 132.442 -5.15342 147.619 6.23274 150.378C18.9955 154.508 32.4608 147.651 43.1412 140.632C59.8534 129.328 73.9706 113.929 83.7934 96.3369C86.939 89.6628 90.8061 82.1058 89.6036 74.5741C89.3694 74.0551 89.9264 73.4792 90.401 73.7988C115.446 74.2134 131.332 97.0743 130.99 95.7167C129.465 89.6185 120.623 70.7133 97.5277 66.9064M59.3407 47.7322C55.8249 55.8873 50.2615 62.9918 43.7583 69.0013C40.8184 71.2039 38.2203 74.5646 34.2488 74.7672C29.6 74.821 32.0146 68.9444 33.5937 66.6848C36.3437 61.9316 40.7235 58.419 44.7678 54.7987C48.809 51.3556 53.2362 48.4569 57.9641 46.0676C60.5084 44.5708 59.9958 45.7606 59.3375 47.7353M79.8598 77.2893C76.306 92.2072 66.1382 105.761 52.521 112.97C49.1096 114.777 35.3943 122.258 35.195 114.698C37.1823 100.445 60.3154 81.5077 73.4452 76.995C75.3788 76.2071 77.4136 75.7672 79.4136 75.2039C80.9674 74.8178 79.6984 76.5014 79.8598 77.2862" fill="#E01F26"/>
<path d="M59.3089 148.056H59.2804C58.7582 147.271 57.8089 146.771 56.5905 146.73C54.5588 146.663 53.0367 148.113 52.9702 150.198C52.9006 152.283 54.3215 153.818 56.3532 153.885C57.6601 153.929 58.6696 153.432 59.2329 152.597H59.2614L59.2488 153.834L60.1095 153.863L60.4513 143.578L59.4576 143.546L59.3089 148.059V148.056ZM56.5304 153.008C54.9861 152.957 53.9259 151.818 53.9766 150.233C54.0304 148.647 55.1664 147.565 56.7076 147.616C58.2519 147.666 59.312 148.821 59.2582 150.407C59.2044 151.992 58.0715 153.059 56.5272 153.008H56.5304Z" fill="#E01F26"/>
<path d="M69.9542 149.378C69.7485 147.391 68.239 146.23 66.1124 146.451C64.0016 146.669 62.6757 148.299 62.894 150.391C63.1187 152.54 64.8149 153.783 67.22 153.533C68.3118 153.42 69.2422 153.011 69.8055 152.407L69.701 151.397H69.6567C69.046 152.132 68.2074 152.543 67.1599 152.651C65.4479 152.828 64.2137 152.024 63.9289 150.578L70.0143 149.945L69.9542 149.375V149.378ZM63.8434 149.733C63.932 148.438 64.8624 147.47 66.22 147.328C67.6662 147.179 68.7422 147.91 69.0112 149.195L63.8434 149.733Z" fill="#E01F26"/>
<path d="M74.7679 148.1C73.4768 148.318 73.0147 148.166 72.8818 147.578C72.7236 146.875 73.2901 146.22 74.2299 146.005C75.2141 145.783 75.9926 145.862 76.5496 146.233L76.5939 146.223L76.3597 145.192C75.8027 144.954 74.9483 144.938 74.0053 145.15C72.4831 145.495 71.6476 146.575 71.9261 147.806C72.192 148.983 72.9166 149.359 74.7584 149.078C76.1413 148.869 76.6255 149.046 76.7743 149.707C76.9357 150.426 76.3787 151.049 75.3629 151.277C74.2616 151.527 73.3185 151.394 72.6445 150.897L72.6002 150.907L72.8439 151.983C73.5337 152.34 74.4578 152.385 75.5875 152.132C77.1952 151.768 78.0306 150.749 77.7458 149.489C77.4578 148.214 76.6762 147.787 74.7679 148.1Z" fill="#E01F26"/>
<path d="M83.0087 138.894L84.5435 143.141L84.515 143.151C83.7397 142.619 82.6701 142.505 81.5245 142.916C79.6099 143.606 78.7365 145.518 79.4485 147.48C80.1574 149.442 82.0435 150.34 83.9581 149.647C85.1859 149.204 85.9422 148.369 86.1574 147.385L86.1859 147.375L86.6321 148.527L87.4422 148.236L83.9454 138.556L83.0087 138.894ZM85.3695 145.344C85.9074 146.837 85.2492 148.245 83.7967 148.771C82.3441 149.296 80.9359 148.632 80.3979 147.138C79.8599 145.644 80.5118 144.22 81.9644 143.695C83.4169 143.169 84.8315 143.847 85.3695 145.34V145.344Z" fill="#E01F26"/>
<path d="M95.4229 142.385C95.1254 143.287 94.4988 143.983 93.5652 144.47C92.0399 145.268 90.5969 144.98 89.7962 143.739L95.2172 140.901L94.9513 140.391C94.0241 138.619 92.195 138.1 90.2994 139.094C88.4196 140.078 87.7899 142.084 88.7677 143.945C89.7709 145.859 91.8057 146.388 93.9513 145.264C94.926 144.755 95.638 144.033 95.9387 143.261L95.4672 142.363L95.4292 142.385H95.4229ZM89.3975 142.983C89.0019 141.745 89.5083 140.502 90.7171 139.869C92.0051 139.195 93.2773 139.476 94.002 140.571L89.3975 142.983Z" fill="#E01F26"/>
<path d="M100.663 128.825L99.002 132.692L99.676 133.524L101.242 129.869L106.654 136.537L107.448 135.888L101.296 128.309L100.663 128.825Z" fill="#E01F26"/>
<path d="M112.98 123.014C110.746 120.992 108.401 120.976 106.61 122.957C105.145 124.574 105.151 126.543 106.61 127.866C108.005 129.128 109.86 128.983 111.246 127.454C112.221 126.375 112.626 125.138 112.493 124.017L112.512 123.995C114.401 125.783 114.635 127.698 113.16 129.328C112.442 130.122 111.657 130.552 110.853 130.584L110.812 130.628L111.619 131.359C112.334 131.245 113.138 130.733 113.895 129.894C115.787 127.802 115.442 125.245 112.977 123.017L112.98 123.014ZM110.657 126.72C109.641 127.843 108.319 127.989 107.306 127.071C106.258 126.125 106.258 124.723 107.315 123.555C108.489 122.255 110.075 122.128 111.546 123.217C111.904 124.4 111.565 125.717 110.657 126.717V126.72Z" fill="#E01F26"/>
<path d="M121.863 115.587L121.088 115.077L120.281 116.305L114.594 112.565L113.99 113.483L116.49 122.179L117.214 122.657L120.493 117.669L122.189 118.783L122.752 117.926L121.056 116.812L121.863 115.584V115.587ZM117.132 121.097L115.11 114.134L119.718 117.163L117.132 121.097Z" fill="#E01F26"/>
<path d="M125.43 105.521C123.718 104.739 121.993 105.435 121.136 107.312C120.531 108.635 120.519 109.935 120.984 110.967L120.971 110.995C118.629 109.859 117.832 108.106 118.743 106.106C119.189 105.134 119.807 104.486 120.563 104.21L120.588 104.157L119.598 103.704C118.949 104.027 118.338 104.761 117.87 105.786C116.696 108.353 117.797 110.685 120.819 112.065C123.56 113.318 125.8 112.628 126.911 110.198C127.819 108.214 127.221 106.337 125.43 105.521ZM126.057 109.84C125.329 111.435 123.857 112.036 122.126 111.438C121.43 110.416 121.354 109.062 121.914 107.831C122.544 106.454 123.759 105.916 125.003 106.483C126.288 107.068 126.708 108.407 126.057 109.837V109.84Z" fill="#E01F26"/>
</svg>
