<svg width="44" height="30" viewBox="0 0 44 30" fill="none" xmlns="http://www.w3.org/2000/svg">
<path fill-rule="evenodd" clip-rule="evenodd" d="M43.6364 26.25C43.6364 28.3125 42 30 40 30H3.63636C1.63636 30 0 28.3125 0 26.25V3.75C0 1.6875 1.63636 0 3.63636 0H40C42 0 43.6364 1.6875 43.6364 3.75V26.25Z" fill="#FFED00"/>
<path fill-rule="evenodd" clip-rule="evenodd" d="M12.733 18.1391L24.1981 10.493L25.9375 11.6538L16.2116 18.1373L22.0366 22.023L25.1651 19.9371L22.9974 18.4884L27.4386 15.5288L31.3456 18.1382L22.0366 24.341L12.733 18.1391ZM27.867 8.05246L31.534 5.60924V7.92626L29.6063 9.2132L27.867 8.05246ZM18.1358 18.1391L27.8652 11.6564L22.034 7.77161L18.91 9.85933L21.0777 11.2894L16.6329 14.2543L12.733 11.6502L22.0358 5.45459L31.3447 11.6493L19.8752 19.2998L18.1358 18.1391ZM12.5455 21.8684L14.4723 20.5823L16.2116 21.7431L12.5455 24.1854V21.8684Z" fill="#225198"/>
</svg>
