<svg width="44" height="30" viewBox="0 0 44 30" fill="none" xmlns="http://www.w3.org/2000/svg">
<path fill-rule="evenodd" clip-rule="evenodd" d="M43.6364 26.25C43.6364 28.3125 42 30 40 30H3.63636C1.63636 30 0 28.3125 0 26.25V3.75C0 1.6875 1.63636 0 3.63636 0H40C42 0 43.6364 1.6875 43.6364 3.75V26.25Z" fill="#EF182C"/>
<path d="M21.2643 23.5465H20.0218V17.1821H21.2643V23.5465ZM24.428 23.5465H22.3941V14.8106H24.428V23.5465ZM29.7311 15.2224C28.8076 16.942 26.6674 17.6374 26.6674 17.6374C26.4289 17.7365 26.3233 17.5842 26.3233 17.5842C26.196 17.3892 26.4297 17.2522 26.4297 17.2522C27.8278 16.2893 28.1968 15.2232 28.1968 15.2232C29.4725 12.1594 24.4079 10.5075 24.4079 10.5075C21.4271 9.38499 17.9299 9.87412 17.9299 9.87412C17.0112 11.3214 16.896 13.1482 17.141 14.4697C17.4359 16.0943 18.1934 17.2345 18.1934 17.2345C18.2973 17.4086 18.1507 17.5149 18.1507 17.5149C17.9814 17.6261 17.8267 17.4642 17.8267 17.4642C16.875 16.6043 16.2537 15.5342 15.9129 14.4834C15.1474 12.1216 15.8807 10.2198 15.8807 10.2198C14.9685 10.4237 14.0224 10.7501 14.0224 10.7501C13.7597 10.8725 13.6622 10.7041 13.6622 10.7041C13.5478 10.4712 13.85 10.3512 13.85 10.3512C14.8685 9.78065 16.2272 9.33986 16.2272 9.33986C17.1804 7.40025 18.8993 6.68871 18.8993 6.68871C21.6914 5.37361 24.4103 6.34623 24.4103 6.34623C26.3878 6.96027 27.3902 8.35031 27.3902 8.35031C27.578 8.54854 27.4095 8.68151 27.4095 8.68151C27.2758 8.81447 27.1025 8.65088 27.1025 8.65088C25.9373 7.61621 24.4159 7.38091 24.4159 7.38091C20.9597 6.72094 18.9089 8.72502 18.9089 8.72502C21.5963 8.3205 24.4103 9.01592 24.4103 9.01592C25.9728 9.36323 27.1871 10.0135 27.1871 10.0135C31.6071 12.3536 29.7311 15.2224 29.7311 15.2224Z" fill="white"/>
</svg>
