<svg width="45" height="30" viewBox="0 0 45 30" fill="none" xmlns="http://www.w3.org/2000/svg">
<path fill-rule="evenodd" clip-rule="evenodd" d="M44.5455 26.25C44.5455 28.3125 42.9092 30 40.9092 30H4.54554C2.54554 30 0.90918 28.3125 0.90918 26.25V3.75C0.90918 1.6875 2.54554 0 4.54554 0H40.9092C42.9092 0 44.5455 1.6875 44.5455 3.75V26.25Z" fill="black"/>
<path d="M38.3459 16.2699C38.1373 17.2915 37.2336 18.0603 36.1511 18.0603C35.9095 18.0603 35.6696 18.0218 35.4401 17.9448L34.9425 19.431C35.3317 19.561 35.7402 19.6276 36.1511 19.6268C37.9912 19.6268 39.5272 18.3203 39.8819 16.5837L38.3459 16.2699ZM33.6288 18.6726L34.6665 17.4986C34.2026 17.0885 33.9113 16.489 33.9113 15.8205C33.9113 15.1529 34.2034 14.5542 34.6665 14.1441L33.628 12.9701C32.8408 13.6674 32.344 14.6866 32.344 15.8205C32.3432 16.9553 32.8408 17.9753 33.6288 18.6726ZM35.4409 13.6963C35.664 13.6217 35.9023 13.5816 36.1511 13.5816C37.2344 13.5816 38.1389 14.3512 38.3459 15.3744L39.8819 15.0614C39.5296 13.3232 37.9928 12.0151 36.1511 12.0151C35.741 12.0143 35.3333 12.0809 34.9449 12.2101L35.4409 13.6963ZM30.8434 10.3002V17.6494L32.1185 18.1783L31.5151 19.6276L30.2535 19.1036C29.9702 18.9808 29.7784 18.793 29.6324 18.5819C29.4928 18.3653 29.3884 18.0691 29.3884 17.6703V10.301L30.8434 10.3002ZM25.0333 12.0159C22.9331 11.9838 21.203 13.6618 21.1709 15.7628C21.1588 16.5508 21.3859 17.2867 21.7864 17.899L28.6798 14.9522C28.2922 13.2919 26.8156 12.0432 25.0333 12.0159ZM22.7494 16.0573C22.7397 15.969 22.7333 15.8791 22.7357 15.7876C22.7558 14.5494 23.7742 13.5615 25.0116 13.5816C25.6849 13.5904 26.2828 13.8994 26.6872 14.3761L22.7494 16.0573ZM26.542 17.4215C26.1263 17.826 25.5629 18.0716 24.941 18.0627C24.5149 18.0555 24.1192 17.9279 23.7838 17.7152L22.9508 19.0426C23.5398 19.4157 24.2212 19.618 24.9185 19.6276C25.9738 19.6436 26.936 19.2288 27.635 18.5442L26.542 17.4215Z" fill="white"/>
<path fill-rule="evenodd" clip-rule="evenodd" d="M15.6498 15.701C15.3087 17.3751 13.8289 18.6342 12.0546 18.6342C11.659 18.6342 11.2657 18.5708 10.8902 18.4456L10.0748 20.8812C10.7128 21.0946 11.3813 21.203 12.0546 21.2022C15.0704 21.2022 17.5862 19.0619 18.1656 16.2171L15.6498 15.701Z" fill="#ED412F"/>
<path fill-rule="evenodd" clip-rule="evenodd" d="M7.92164 19.6356L9.62294 17.712C8.86377 17.0395 8.38468 16.058 8.38468 14.9634C8.38468 13.8696 8.86377 12.8882 9.62294 12.2165L7.92084 10.2937C6.63123 11.4365 5.8183 13.1048 5.8183 14.9642C5.8175 16.8236 6.63123 18.4928 7.92164 19.6356Z" fill="#1AA5DF"/>
<path fill-rule="evenodd" clip-rule="evenodd" d="M10.8901 11.4831C11.2649 11.3579 11.6581 11.2945 12.0537 11.2945C13.8296 11.2945 15.3102 12.556 15.6505 14.2308L18.1663 13.718C17.5893 10.8708 15.0719 8.7273 12.0537 8.7273C11.382 8.7265 10.7143 8.83483 10.0764 9.0475L10.8901 11.4831Z" fill="#FFCA32"/>
</svg>
