<svg width="45" height="30" viewBox="0 0 45 30" fill="none" xmlns="http://www.w3.org/2000/svg">
<path fill-rule="evenodd" clip-rule="evenodd" d="M44.1818 26.25C44.1818 28.3125 42.5454 30 40.5454 30H4.18177C2.18177 30 0.54541 28.3125 0.54541 26.25V3.75C0.54541 1.6875 2.18177 0 4.18177 0H40.5454C42.5454 0 44.1818 1.6875 44.1818 3.75V26.25Z" fill="#BE232C"/>
<path d="M11.0006 11.6456L11.1406 11.6464L11.2516 11.6075L11.3626 11.5686L11.4608 11.4659L11.5589 11.3632L11.6104 11.2266L11.6619 11.0899L11.6635 10.8887L11.6651 10.6875L11.6193 10.6088L11.5734 10.5301L11.493 10.4788L11.4125 10.4274H11.2395H11.0666L10.9483 10.4821L10.8301 10.5367L10.7617 10.6121L10.6933 10.6875L10.6394 10.8175L10.5855 10.9475L10.575 11.1504L10.5646 11.3533L10.6145 11.4543L10.6643 11.5553L10.7609 11.6009L10.8574 11.6456H11.0006ZM33.2882 17.431H33.791V17.2729V17.1147L33.8489 16.7221C33.8811 16.506 33.9334 16.164 33.9655 15.9619C33.9977 15.7598 34.0379 15.5039 34.0556 15.393C34.0725 15.282 34.1176 15.0418 34.1554 14.8596C34.1932 14.6774 34.2407 14.4795 34.2608 14.4207C34.2809 14.3619 34.297 14.3006 34.2978 14.2841C34.2978 14.2675 34.3412 14.1607 34.3927 14.0472L34.4876 13.841L34.6131 13.6696L34.7386 13.4982L34.8754 13.3922C34.951 13.3342 35.0717 13.2564 35.1449 13.2199L35.2768 13.1537L35.5649 13.1553L35.8529 13.157L35.9663 13.1942L36.0797 13.2315L36.099 13.2191L36.1183 13.2067L36.1191 13.1313C36.1199 13.0899 36.1441 12.935 36.1739 12.7876L36.2278 12.5193L36.1674 12.4953C36.1344 12.482 36.0548 12.4539 35.992 12.4332L35.877 12.3959L35.6694 12.3967L35.4619 12.3976L35.2929 12.4589L35.124 12.5201L34.9969 12.5988L34.8698 12.6775L34.7049 12.8555L34.5399 13.0336L34.4514 13.1719C34.4024 13.2481 34.3597 13.306 34.3557 13.3019C34.3517 13.2978 34.3782 13.1396 34.4144 12.9508C34.4506 12.762 34.4804 12.5831 34.4812 12.5533L34.482 12.5003H34.0556H33.6293V12.5152C33.6293 12.5234 33.6083 12.6758 33.5818 12.853C33.556 13.0303 33.5038 13.3731 33.4659 13.6141C33.4281 13.8551 33.3662 14.2452 33.3284 14.4795C33.2906 14.7139 33.2334 15.0501 33.2013 15.2265C33.1691 15.4029 33.1128 15.7118 33.075 15.9139C33.0372 16.1159 32.976 16.4414 32.9382 16.6368C32.9004 16.8323 32.8505 17.0915 32.8272 17.2116L32.7845 17.431H33.2882ZM21.6142 17.431H22.1058L22.1203 17.2165C22.1283 17.0989 22.1565 16.8613 22.1822 16.689C22.2079 16.5168 22.261 16.1731 22.2997 15.9255C22.3383 15.6778 22.4107 15.2654 22.4605 15.0087C22.5104 14.752 22.5659 14.4977 22.5844 14.4423C22.6029 14.3876 22.619 14.3271 22.619 14.3098C22.619 14.2924 22.656 14.1946 22.7011 14.0936C22.7461 13.9926 22.8306 13.8377 22.8885 13.7499L22.9931 13.5893L23.1339 13.4551L23.2747 13.3209L23.4477 13.2357L23.6206 13.1504L23.8853 13.152L24.15 13.1537L24.2803 13.1934C24.3519 13.2158 24.4171 13.2332 24.4243 13.2332C24.4315 13.2332 24.438 13.2083 24.438 13.1769C24.438 13.1454 24.4637 12.9897 24.4959 12.8299C24.5281 12.67 24.5538 12.5317 24.5538 12.5234C24.5538 12.5152 24.479 12.4845 24.3865 12.4564C24.2948 12.4274 24.1677 12.3976 24.1041 12.3893L23.9891 12.3744L23.8394 12.4017C23.7574 12.4166 23.6343 12.4497 23.5675 12.4754C23.4999 12.5011 23.3889 12.5582 23.3205 12.6038C23.2522 12.6493 23.1452 12.7371 23.084 12.7992C23.0221 12.8613 22.9183 12.9872 22.8531 13.0783C22.788 13.1694 22.7196 13.2655 22.7019 13.292L22.6689 13.3392L22.689 13.2439C22.7003 13.1918 22.7309 13.0212 22.7574 12.8646C22.784 12.7081 22.8113 12.5615 22.8177 12.5384L22.8298 12.4969H22.3906H21.9513V12.5541C21.9513 12.5856 21.9256 12.7752 21.8934 12.9748C21.862 13.1752 21.8097 13.5089 21.7775 13.7176C21.7454 13.9263 21.6882 14.289 21.6504 14.5234C21.6126 14.7578 21.5555 15.094 21.5233 15.2704C21.4911 15.4468 21.434 15.7557 21.3962 15.9578C21.3584 16.1598 21.2956 16.4903 21.257 16.6932C21.2184 16.8952 21.1718 17.1337 21.1541 17.224C21.1364 17.3134 21.1211 17.3962 21.1211 17.4078V17.4285L21.6142 17.431ZM10.0264 17.431H10.5219L10.5356 17.3938C10.5437 17.3731 10.5493 17.3192 10.5493 17.2737C10.5493 17.2281 10.5807 16.9913 10.6185 16.7478C10.6563 16.5043 10.7199 16.1077 10.7585 15.8667C10.7971 15.6257 10.855 15.2737 10.8856 15.0841C10.917 14.8953 10.9725 14.5806 11.0095 14.3843C11.0465 14.1888 11.1028 13.8849 11.135 13.7085C11.1671 13.5321 11.2299 13.1976 11.2758 12.964C11.3208 12.7305 11.3634 12.5301 11.3699 12.5193L11.3827 12.4986L10.8816 12.5052L10.3804 12.5119L10.3385 12.8199C10.3152 12.9897 10.2653 13.3259 10.2267 13.5669C10.1881 13.8079 10.1302 14.1764 10.098 14.3851C10.0658 14.5938 10.0087 14.93 9.97168 15.1321C9.93467 15.3342 9.87836 15.6439 9.84618 15.8195C9.814 15.9959 9.75607 16.3048 9.71826 16.5068C9.67965 16.7089 9.62816 16.9755 9.60403 17.0998C9.57989 17.224 9.55334 17.349 9.5453 17.378L9.53162 17.431H10.0264ZM3.83022 17.431H4.39014L4.43036 17.176C4.45208 17.036 4.49553 16.766 4.5261 16.5772C4.55667 16.3884 4.61379 16.0356 4.6524 15.7946C4.69102 15.5536 4.74974 15.1959 4.78273 15.0004C4.81571 14.805 4.8672 14.5011 4.89777 14.3263C4.92834 14.1507 4.95891 14.0017 4.96615 13.9942L4.97902 13.981H6.48422H7.98942L8.00631 13.9984L8.02321 14.0158L7.99746 14.1524C7.98298 14.2278 7.94034 14.4596 7.90334 14.6683C7.86553 14.877 7.80278 15.229 7.76336 15.4509C7.72394 15.6729 7.66682 15.9876 7.63625 16.1507C7.60568 16.3139 7.54454 16.6551 7.49949 16.9093C7.45443 17.1635 7.41823 17.3847 7.41823 17.4012V17.431H7.98057H8.54291L8.56784 17.2828C8.58152 17.2016 8.60324 17.0542 8.61692 16.9565C8.63059 16.8588 8.66197 16.6509 8.68771 16.4944C8.71346 16.3379 8.76495 16.0282 8.80195 15.807C8.83896 15.5859 8.9009 15.2066 8.94032 14.9656C8.97894 14.7247 9.03686 14.3727 9.06824 14.183C9.09961 13.9934 9.15593 13.6737 9.19293 13.4717C9.22994 13.2696 9.29188 12.9284 9.3305 12.7131C9.36911 12.4978 9.42704 12.1723 9.45841 11.9901C9.49059 11.8079 9.54852 11.4767 9.58794 11.2547C9.62736 11.0328 9.67723 10.7744 9.69815 10.68L9.73677 10.5077H9.16799H8.59922L8.58394 10.6204C8.57509 10.6825 8.54773 10.8556 8.52279 11.0055C8.49785 11.1554 8.452 11.422 8.42143 11.5984C8.39086 11.7748 8.33454 12.1102 8.29673 12.3454C8.25892 12.5798 8.21065 12.8911 8.18974 13.0361L8.15112 13.2994L7.31606 13.3168L6.481 13.3342L5.7811 13.3168C5.39655 13.3077 5.07958 13.2978 5.07637 13.2953C5.07395 13.2928 5.08683 13.2009 5.10533 13.0907C5.12383 12.9806 5.15923 12.7885 5.18336 12.6651C5.2075 12.5417 5.25416 12.2957 5.28634 12.1193C5.31852 11.9429 5.35472 11.7243 5.36759 11.6332C5.38046 11.5421 5.40621 11.3897 5.42551 11.2953C5.44482 11.2009 5.48183 11.0013 5.50677 10.8531C5.53251 10.704 5.55906 10.5657 5.56711 10.545L5.58078 10.5077H5.01684H4.45208L4.41588 10.7156C4.39577 10.8299 4.36922 10.9922 4.35715 11.0775C4.34509 11.1628 4.30245 11.4344 4.26383 11.6821C4.22522 11.9297 4.1673 12.2982 4.13673 12.5003C4.10615 12.7023 4.04823 13.0708 4.01042 13.3185C3.97261 13.5661 3.90905 13.9503 3.86963 14.1723C3.83021 14.3942 3.7739 14.7089 3.74414 14.8721C3.71437 15.0352 3.65725 15.3441 3.61703 15.5594C3.5768 15.7747 3.51888 16.0787 3.4875 16.2352C3.45613 16.3917 3.42154 16.5731 3.41108 16.6385C3.39981 16.7039 3.36442 16.8919 3.33224 17.0567C3.29925 17.2215 3.27271 17.3731 3.27271 17.3946V17.4335H3.83102L3.83022 17.431ZM37.7297 16.8737L37.556 16.8828L37.4385 16.8613C37.3741 16.8497 37.2704 16.8174 37.2092 16.79L37.0974 16.7404L37.0033 16.6609L36.9091 16.5814L36.8392 16.4431L36.7692 16.3048L36.737 16.1507L36.7048 15.9967L36.7072 15.6886L36.7096 15.3805L36.7466 15.1081L36.7837 14.8356L36.8416 14.646C36.8729 14.5416 36.8995 14.4431 36.8995 14.4273C36.8995 14.4116 36.9309 14.3263 36.9695 14.2377C37.0073 14.1491 37.0717 14.0133 37.1111 13.9346C37.1505 13.8568 37.2253 13.7342 37.276 13.6638C37.3267 13.5926 37.4176 13.4866 37.4779 13.427C37.5383 13.3673 37.6332 13.2895 37.6903 13.253L37.7933 13.1876L37.9743 13.123L38.1553 13.0584H38.535H38.9147L39.1336 13.1205C39.2542 13.1553 39.3813 13.1951 39.4175 13.2091L39.4827 13.2348L39.4698 13.3002C39.4626 13.3359 39.4352 13.4932 39.4087 13.6497C39.3821 13.8062 39.3299 14.1052 39.2929 14.3139C39.2558 14.5226 39.1987 14.8373 39.1657 15.0137C39.1328 15.1901 39.0853 15.4137 39.0604 15.5114C39.0354 15.6091 38.9992 15.7449 38.9815 15.812C38.963 15.8799 38.9196 15.9975 38.885 16.0729C38.8504 16.1482 38.7892 16.2584 38.749 16.3172C38.7088 16.376 38.642 16.4571 38.5994 16.4977C38.5567 16.5383 38.465 16.6103 38.3958 16.6584L38.2695 16.7453L38.0861 16.805L37.9027 16.8646L37.7297 16.8737ZM37.3379 17.547L37.5568 17.5495L37.7643 17.5147C37.8786 17.4956 38.0234 17.465 38.0869 17.4468C38.1505 17.4285 38.2639 17.3805 38.3403 17.3399L38.4787 17.2671L38.5978 17.1594L38.7168 17.0517L38.8423 16.8795C38.9115 16.7851 38.9735 16.6915 38.9807 16.6716L38.9944 16.636L38.9831 16.7544C38.9767 16.8199 38.9622 16.9267 38.9509 16.9913C38.9397 17.0567 38.9236 17.1818 38.9155 17.2695L38.9003 17.4294H39.3524H39.8045V17.2695V17.1097L39.8737 16.5052C39.9115 16.1722 39.9678 15.73 39.9984 15.5213C40.029 15.3126 40.0764 15.0137 40.103 14.8572C40.1303 14.7006 40.1778 14.4182 40.21 14.2286C40.2413 14.0398 40.2985 13.7085 40.3363 13.4932C40.3741 13.2779 40.4352 12.9367 40.4714 12.7346C40.5076 12.5326 40.5647 12.2179 40.5969 12.0348C40.6299 11.8527 40.6886 11.5322 40.7273 11.3235C40.7659 11.1148 40.823 10.8216 40.8536 10.6717C40.8841 10.5218 40.9091 10.391 40.9091 10.381V10.3636H40.4159H39.9228L39.9083 10.5119C39.9002 10.593 39.8624 10.863 39.8246 11.1106C39.7868 11.3582 39.7241 11.7533 39.6862 11.9876C39.6484 12.222 39.6122 12.4497 39.605 12.4936L39.5929 12.5723L39.5543 12.5549C39.5326 12.5458 39.4167 12.5127 39.2969 12.4812L39.0781 12.4249L38.7788 12.4009L38.4795 12.3769L38.2261 12.4009L37.9727 12.4249L37.7426 12.4845L37.5125 12.5442L37.2937 12.6543L37.0749 12.7644L36.914 12.887L36.7531 13.0096L36.6139 13.1636C36.5375 13.2481 36.4265 13.388 36.3677 13.4742L36.2607 13.6315L36.1352 13.8998C36.066 14.0472 35.9824 14.2427 35.9494 14.3338C35.9164 14.4249 35.8569 14.6278 35.8183 14.7835L35.7475 15.0675L35.7129 15.436L35.6783 15.8046L35.704 16.101L35.7298 16.3975L35.7603 16.5043C35.7772 16.5631 35.8134 16.6675 35.84 16.737L35.8883 16.8629L35.9768 16.9863L36.0652 17.1097L36.1666 17.195L36.268 17.2803L36.4063 17.3507C36.482 17.3896 36.6099 17.4401 36.6895 17.4625C36.7692 17.4849 36.8987 17.5122 36.9775 17.523C37.0548 17.5354 37.2165 17.5453 37.3379 17.547ZM29.8401 16.8753L29.6559 16.8853L29.5336 16.853C29.4668 16.8356 29.3647 16.7958 29.3075 16.766L29.203 16.7105L29.1458 16.641C29.1145 16.6029 29.067 16.5275 29.0396 16.4737L28.9906 16.376L28.9809 16.1482L28.9713 15.9205L29.0107 15.7822C29.0324 15.706 29.0823 15.5743 29.1225 15.489L29.1957 15.3342L29.3357 15.1917L29.4757 15.0493L29.6237 14.9756L29.7717 14.9019L29.956 14.8572L30.1402 14.8124H30.7162H31.2922L31.3284 14.8282L31.3646 14.8439L31.3341 15.0302C31.3172 15.1329 31.2769 15.3176 31.2448 15.4418C31.2126 15.566 31.1555 15.7482 31.1184 15.8468C31.0814 15.9453 31.0501 16.0331 31.0501 16.0406C31.0501 16.0489 31.0123 16.1201 30.9656 16.2004L30.8811 16.3462L30.7428 16.4869C30.6671 16.5648 30.5963 16.6277 30.5859 16.6277C30.5754 16.6277 30.5288 16.6542 30.4821 16.6874L30.3968 16.747L30.2102 16.8074L30.0235 16.8679L29.8401 16.8753ZM29.5529 17.5387L29.8642 17.5296L30.0597 17.4782L30.2552 17.4269L30.3815 17.3656C30.4515 17.3317 30.565 17.2646 30.6349 17.2165C30.7049 17.1685 30.8127 17.0774 30.8747 17.0145C30.9366 16.9515 31.0292 16.843 31.0798 16.7743C31.1305 16.7056 31.1748 16.6526 31.178 16.6559C31.182 16.66 31.1699 16.7693 31.1522 16.8994C31.1345 17.0294 31.1193 17.2025 31.1193 17.2844L31.1184 17.4327H31.5408H31.9632L31.976 17.0948L31.9889 16.7569L32.0492 16.318C32.0822 16.077 32.1361 15.7193 32.1683 15.5238C32.2005 15.3284 32.2568 14.9971 32.293 14.7884C32.3292 14.5797 32.3871 14.2543 32.4209 14.0655L32.4829 13.7218L32.4853 13.4245L32.4877 13.1272L32.4225 12.9897L32.3574 12.8522L32.2689 12.7644L32.1804 12.6767L32.0348 12.6013L31.8891 12.5259L31.6727 12.4762L31.4563 12.4266L31.1587 12.4034L30.861 12.3802L30.4773 12.405C30.2665 12.4183 29.9688 12.4448 29.8168 12.4638L29.54 12.4986L29.3518 12.4994L29.1635 12.5003L29.1362 12.6369C29.1209 12.7123 29.0791 12.8903 29.0429 13.0328C29.0067 13.1752 28.9809 13.2961 28.9849 13.3002C28.989 13.3044 29.0895 13.2812 29.2086 13.2481C29.3277 13.2149 29.5803 13.1611 29.7709 13.1272L30.1161 13.0667L30.4274 13.0535L30.7387 13.0402L30.939 13.0766L31.1394 13.1131L31.2729 13.181L31.4065 13.2489L31.4813 13.364L31.5561 13.4791L31.5553 13.6605L31.5545 13.8419L31.5151 14.0406L31.4756 14.2394L30.647 14.2427L29.8184 14.246L29.5473 14.3222C29.3985 14.3644 29.2327 14.4199 29.1804 14.4464C29.1273 14.4729 29.075 14.4944 29.063 14.4944C29.0509 14.4944 28.9624 14.5449 28.8659 14.6071L28.6897 14.7197L28.5513 14.8621C28.4749 14.9408 28.3776 15.0576 28.3349 15.123C28.2923 15.1884 28.2223 15.3242 28.1805 15.4261L28.104 15.6099L28.0686 15.817L28.0332 16.024V16.241V16.458L28.067 16.6385L28.1008 16.819L28.1636 16.9366C28.1982 17.0012 28.2609 17.0965 28.3035 17.1478L28.3808 17.2414L28.5183 17.3275L28.6559 17.4136L28.8136 17.4592C28.9005 17.4849 29.0324 17.5147 29.1072 17.5271L29.2432 17.5495L29.5529 17.5387ZM25.763 17.547L26.0164 17.5503L26.3044 17.5155C26.4629 17.4965 26.6737 17.4642 26.7726 17.4443C26.8716 17.4244 27.0325 17.3855 27.1298 17.3573C27.2271 17.3292 27.3148 17.2985 27.3253 17.2894C27.3357 17.2803 27.3631 17.1726 27.3864 17.0501C27.4098 16.9275 27.4387 16.7635 27.4516 16.6849C27.4645 16.607 27.4709 16.5383 27.4661 16.5333C27.4612 16.5283 27.4443 16.535 27.4283 16.5482C27.4122 16.5615 27.2987 16.6103 27.1773 16.6567L26.9552 16.7412L26.6391 16.8041L26.3229 16.8671L26.0542 16.858L25.7855 16.8488L25.6326 16.7942L25.4798 16.7395L25.3615 16.6335L25.2441 16.5275L25.166 16.3809L25.088 16.2344L25.051 16.0381L25.014 15.8418V15.5876V15.3333L25.059 15.0253L25.1041 14.7172L25.1524 14.5516C25.1789 14.4605 25.2087 14.3536 25.2183 14.3147C25.2288 14.2758 25.2706 14.1632 25.3125 14.0655C25.3543 13.9677 25.4283 13.8162 25.4774 13.7292L25.5667 13.571L25.6761 13.4543L25.7855 13.3375L25.9013 13.2638L26.0172 13.1901L26.166 13.1429C26.2481 13.1172 26.3929 13.0833 26.4878 13.0684L26.6608 13.041L26.9142 13.0543L27.1676 13.0675L27.4669 13.1288L27.7661 13.1909L27.8876 13.2373C27.9544 13.263 28.0123 13.2837 28.0155 13.2837C28.0188 13.2837 28.0348 13.1959 28.0509 13.0882C28.067 12.9806 28.0952 12.8034 28.1145 12.6949C28.133 12.5864 28.1443 12.4928 28.1386 12.487C28.133 12.4812 28.0429 12.4663 27.9383 12.4547C27.8337 12.4431 27.5497 12.4208 27.3076 12.4067L26.8667 12.381L26.5554 12.4059L26.2441 12.4307L26.014 12.4804L25.7839 12.5301L25.6359 12.5914C25.5546 12.6253 25.4347 12.6858 25.3704 12.7263C25.306 12.7669 25.224 12.8216 25.1878 12.8472C25.1516 12.8729 25.043 12.9748 24.9464 13.0733L24.7702 13.2522L24.6721 13.4005C24.6182 13.4824 24.5241 13.6522 24.4637 13.7789L24.3543 14.0091L24.2698 14.2584C24.2232 14.3951 24.1588 14.6195 24.1266 14.7561L24.0671 15.0054L24.0454 15.2306L24.0237 15.4559V15.7524V16.0489L24.0454 16.2211L24.0671 16.3934L24.1363 16.5706L24.2055 16.7478L24.2851 16.8762L24.3648 17.0045L24.4919 17.1329L24.619 17.2613L24.7533 17.3341L24.8877 17.407L25.0639 17.4575C25.1604 17.4849 25.3004 17.5172 25.3752 17.5279C25.45 17.5354 25.6246 17.5453 25.763 17.547ZM18.8725 14.2071C18.2346 14.2071 17.7133 14.2021 17.7133 14.1963C17.7133 14.1905 17.7406 14.1077 17.7736 14.0124C17.8066 13.9172 17.8653 13.7756 17.9031 13.6969L17.9723 13.5553L18.1244 13.3996L18.2764 13.2439L18.426 13.1702C18.5081 13.1296 18.6175 13.0858 18.6682 13.0725C18.7189 13.0593 18.8637 13.041 18.9908 13.0328L19.2209 13.0178L19.3979 13.041L19.5749 13.0642L19.7036 13.1247L19.8323 13.1851L19.9031 13.2638C19.9417 13.3069 19.9884 13.3706 20.0061 13.4046L20.0382 13.4675L20.0592 13.6067L20.0801 13.7458L20.0559 13.9768L20.0318 14.2079H18.8725V14.2071ZM18.4389 17.547L18.6923 17.5503L18.9457 17.5263C19.0849 17.513 19.3134 17.4857 19.4526 17.4658C19.5917 17.4459 19.8323 17.4004 19.9876 17.3656L20.2691 17.3018L20.2828 17.195C20.2908 17.1362 20.3222 16.9615 20.3528 16.8066L20.4091 16.525L20.397 16.5126L20.385 16.5002L20.2989 16.5433C20.2514 16.5664 20.1042 16.6228 19.9715 16.6683L19.7301 16.7503L19.4767 16.8008L19.2233 16.8513L18.8202 16.8522L18.4172 16.853L18.2788 16.8074C18.2032 16.7826 18.0914 16.737 18.0302 16.7056L17.92 16.6493L17.8291 16.5648L17.7382 16.4803L17.6674 16.3528L17.5966 16.2252L17.5524 16.0654L17.5081 15.9056V15.6091V15.3126L17.5475 15.0485L17.587 14.7843L17.9337 14.7677L18.2804 14.7512L19.562 14.7594L20.8435 14.7677L20.8821 14.5988C20.9031 14.506 20.936 14.3139 20.9545 14.1723L20.9883 13.9147L20.9891 13.6978L20.9899 13.4808L20.9537 13.3185L20.9175 13.1561L20.8572 13.0493C20.8242 12.9905 20.7655 12.9052 20.7277 12.8597C20.6891 12.8141 20.6207 12.7504 20.5756 12.7172C20.5306 12.6841 20.4413 12.6294 20.3785 12.5947L20.2635 12.5317L20.0624 12.482L19.8612 12.4324L19.6135 12.4083L19.3657 12.3843L19.1356 12.4001L18.9055 12.4158L18.6288 12.4704L18.352 12.5251L18.1791 12.5963C18.0841 12.6352 17.9393 12.7065 17.8565 12.7545C17.7744 12.8025 17.6602 12.8804 17.603 12.9284C17.5459 12.9756 17.447 13.0684 17.3834 13.1338C17.3199 13.1992 17.2257 13.3168 17.1743 13.3947C17.1228 13.4725 17.0439 13.6116 16.9989 13.7027C16.9538 13.7938 16.8951 13.9222 16.8686 13.9876C16.842 14.053 16.7937 14.1864 16.7607 14.2841C16.7286 14.3818 16.6771 14.569 16.6473 14.699C16.6176 14.829 16.5765 15.0443 16.5564 15.176L16.5194 15.4162V15.7689V16.1217L16.5548 16.2758C16.5741 16.3602 16.6111 16.4886 16.6369 16.5606C16.6626 16.6327 16.7101 16.7387 16.7422 16.7975C16.7744 16.8563 16.8436 16.9507 16.8959 17.0078C16.9482 17.065 17.0423 17.1511 17.1059 17.1991C17.1694 17.248 17.2821 17.3159 17.3561 17.3507L17.4912 17.4145L17.6803 17.4617C17.7841 17.4873 17.9409 17.518 18.0286 17.5296C18.1139 17.5345 18.2997 17.5453 18.4389 17.547ZM13.6562 16.8952L13.464 16.9068L13.3385 16.8836L13.213 16.8604L13.085 16.8008L12.9571 16.7412L12.8678 16.6534L12.7785 16.5656L12.727 16.4472C12.6989 16.3818 12.6627 16.2716 12.6466 16.2012L12.6176 16.0737L12.6297 15.8691L12.6418 15.6646L12.7013 15.3441C12.7343 15.1677 12.7922 14.8373 12.8316 14.6087C12.8702 14.3801 12.9298 14.0464 12.9628 13.8659L13.0231 13.5379L13.155 13.4245C13.2274 13.3624 13.3425 13.2787 13.4109 13.239L13.5348 13.1669L13.6957 13.1156L13.8565 13.0642L14.0641 13.0518L14.2717 13.0394L14.4406 13.0766L14.6096 13.1139L14.7286 13.1702L14.8477 13.2265L14.9474 13.3301L15.0472 13.4336L15.1011 13.5429C15.1309 13.6033 15.1727 13.7209 15.1936 13.8046L15.2322 13.957L15.2202 14.4075L15.2081 14.858L15.1486 15.1246C15.1164 15.2712 15.0544 15.4948 15.011 15.6224L14.9321 15.8542L14.8364 16.0414C14.7833 16.1449 14.7021 16.284 14.6554 16.3511C14.6087 16.4182 14.5339 16.5052 14.4897 16.5449C14.4454 16.5847 14.3714 16.6451 14.3248 16.6807L14.2403 16.7453L14.0448 16.8141L13.8493 16.8828L13.6562 16.8952ZM11.5235 19.6364H12.0191L12.0328 19.5991C12.0408 19.5784 12.0465 19.5304 12.0465 19.4914C12.0465 19.4525 12.0625 19.3126 12.0827 19.1792C12.1028 19.0459 12.1494 18.7395 12.1864 18.4985C12.2234 18.2575 12.2798 17.8948 12.3103 17.6927C12.3409 17.4907 12.3787 17.2314 12.394 17.118C12.4093 17.0037 12.4278 16.9101 12.435 16.9101C12.4423 16.9101 12.4744 16.9606 12.5058 17.0219L12.5637 17.1337L12.6917 17.2662L12.8196 17.3987L12.9764 17.4633L13.1333 17.5279L13.3208 17.5528L13.5082 17.5776L13.7463 17.5627L13.9845 17.5478L14.2419 17.4791L14.4993 17.4103L14.6377 17.3457C14.7133 17.3101 14.8485 17.2323 14.937 17.1726L15.0979 17.0642L15.2483 16.9093C15.3312 16.824 15.4478 16.6882 15.5074 16.6062C15.5669 16.5242 15.616 16.4522 15.616 16.4447C15.616 16.4373 15.6457 16.3867 15.6811 16.3321C15.7165 16.2774 15.7905 16.1259 15.8444 15.9959C15.8983 15.8658 15.9828 15.6306 16.0319 15.4741L16.1212 15.1892L16.167 14.9425C16.1928 14.8066 16.225 14.583 16.2394 14.4447L16.266 14.193L16.2507 13.9793L16.2354 13.7657L16.1872 13.552L16.1389 13.3383L16.0608 13.1785L15.9828 13.0187L15.8316 12.8547L15.6811 12.6907L15.5033 12.5963L15.3255 12.5019L15.1301 12.4539L14.9346 12.4059L14.7391 12.3909L14.5436 12.376L14.3256 12.4017L14.1075 12.4274L13.9298 12.4738L13.752 12.521L13.5975 12.5947C13.5122 12.6352 13.3883 12.704 13.3224 12.7479C13.2564 12.7918 13.188 12.8415 13.1703 12.8597C13.1534 12.8771 13.1116 12.9102 13.0786 12.9325L13.0183 12.9731L13.0609 12.7653C13.0842 12.651 13.1035 12.5433 13.1044 12.5276L13.1052 12.4978H12.6828H12.2604L12.1864 12.9781C12.1454 13.2423 12.081 13.6505 12.0432 13.8849C12.0054 14.1193 11.9483 14.4721 11.9161 14.6675C11.8839 14.863 11.8276 15.2099 11.7898 15.4385C11.752 15.6671 11.6901 16.0298 11.6514 16.2443C11.6128 16.4596 11.5565 16.7743 11.5259 16.9441C11.4954 17.1138 11.4383 17.4335 11.3988 17.6555C11.3594 17.8774 11.2959 18.2294 11.2581 18.4381C11.2202 18.6467 11.1583 18.9772 11.1205 19.1734C11.0827 19.3697 11.0465 19.5527 11.0392 19.5825L11.0264 19.6355L11.5235 19.6364Z" fill="white"/>
</svg>
