<svg width="45" height="30" viewBox="0 0 45 30" fill="none" xmlns="http://www.w3.org/2000/svg">
<path fill-rule="evenodd" clip-rule="evenodd" d="M44.2728 26.25C44.2728 28.3125 42.6365 30 40.6365 30H4.27284C2.27284 30 0.636475 28.3125 0.636475 26.25V3.75C0.636475 1.6875 2.27284 0 4.27284 0H40.6365C42.6365 0 44.2728 1.6875 44.2728 3.75V26.25Z" fill="#F57733"/>
<path fill-rule="evenodd" clip-rule="evenodd" d="M15.913 5.45459H28.9963C29.9076 5.45459 30.6666 5.78058 31.2968 6.41066C31.948 7.04074 32.2728 7.82247 32.2728 8.73475V21.8327C32.2728 22.7231 31.9472 23.5056 31.2968 24.1349C30.6674 24.765 29.9076 25.091 28.9963 25.091H15.913C15.0017 25.091 14.2209 24.765 13.5915 24.1349C12.9621 23.5048 12.6365 22.7231 12.6365 21.8327V8.73394C12.6365 7.82166 12.9621 7.03993 13.5915 6.40985C14.2209 5.77977 15.0017 5.45459 15.913 5.45459Z" fill="#124C89"/>
<path d="M14.2728 11.4546V18.1146H15.8138V11.4546H14.2728ZM21.6518 16.5931C21.6518 15.9978 22.2375 15.7327 23.388 15.7549V16.2843L23.3661 16.5708C23.3013 16.7693 23.1708 16.924 22.9966 17.0336C22.8233 17.1875 22.6061 17.2542 22.3671 17.2542C21.89 17.255 21.6518 17.0344 21.6518 16.5931ZM19.6329 13.1309H18.6995V11.4546H17.2242V13.1309H16.5299V14.2778H17.2242V16.2851C17.2242 16.9693 17.3547 17.4757 17.6366 17.763C17.9186 18.0718 18.3309 18.2258 18.83 18.2258C19.1557 18.2258 19.4157 18.1813 19.6547 18.0932L19.6329 16.924C19.5891 16.9685 19.5024 16.9899 19.3509 16.9899C19.1127 16.9899 18.9385 16.9018 18.83 16.7248C18.7433 16.5922 18.6995 16.3716 18.6995 16.0414V14.277H19.6329V13.1309ZM23.3442 14.785C22.3461 14.785 21.5862 14.939 21.0652 15.27C20.5224 15.6009 20.2405 16.0859 20.2405 16.7256C20.2405 17.1225 20.3928 17.4757 20.6747 17.7622C21.0004 18.071 21.4128 18.2249 21.9118 18.2249C22.5843 18.2249 23.0833 18.0043 23.4309 17.5852H23.4746V18.1146H24.8633V15.181C24.8633 14.5191 24.6899 14.0119 24.3642 13.6373C23.9737 13.2182 23.388 12.9975 22.6061 12.9975C21.8033 12.9975 21.13 13.1515 20.6099 13.4825L20.8918 14.4532C21.3261 14.1889 21.8033 14.0563 22.3461 14.0563C23.0185 14.0563 23.3442 14.277 23.3442 14.7397V14.785ZM27.25 13.1309H25.7309V16.02C25.7309 16.7923 25.9262 17.3654 26.2956 17.74C26.6213 18.071 27.0556 18.2249 27.5975 18.2249C28.3575 18.2249 28.9214 17.9162 29.2689 17.3209H29.2908V18.1146H30.6365V13.1301H29.1174V16.0414C29.1174 16.174 29.0955 16.2843 29.0745 16.3502C28.9011 16.7693 28.5973 16.9899 28.1412 16.9899C27.5554 16.9899 27.2516 16.5708 27.2516 15.7549L27.25 13.1309ZM27.6405 12.7999H28.7042L30.0062 11.4546H28.5738L27.6405 12.7999Z" fill="#FFF22D"/>
</svg>
