<svg width="131" height="31" viewBox="0 0 131 31" fill="none" xmlns="http://www.w3.org/2000/svg">
<path fill-rule="evenodd" clip-rule="evenodd" d="M29.4991 14.1385V26.2304L37.1161 26.23V23.6855H32.4367V14.1385H29.4991ZM46.7959 22.4219V22.08C46.7959 21.352 46.6908 20.7025 46.4806 20.1334C46.2696 19.564 45.977 19.0801 45.6012 18.6816C45.2251 18.2831 44.7754 17.9786 44.2518 17.768C43.7282 17.5574 43.153 17.4519 42.527 17.4519C41.8782 17.4519 41.2745 17.5604 40.717 17.7764C40.1584 17.9928 39.6748 18.2973 39.2652 18.6904C38.8552 19.0831 38.5306 19.5617 38.2915 20.125C38.0524 20.6882 37.9331 21.3177 37.9331 22.0119C37.9331 22.7295 38.0551 23.3671 38.3 23.925C38.5448 24.4828 38.881 24.9525 39.3075 25.3337C39.7349 25.7156 40.2327 26.0055 40.8021 26.205C41.3712 26.4036 41.9745 26.5037 42.6124 26.5037C43.4772 26.5037 44.2375 26.3467 44.8924 26.034C45.5473 25.721 46.0736 25.274 46.4721 24.6934L44.5251 23.4637C44.3315 23.7259 44.0812 23.9392 43.7736 24.1044C43.4664 24.2695 43.0902 24.3519 42.6463 24.3519C42.3957 24.3519 42.1535 24.3123 41.9206 24.2322C41.6869 24.1529 41.4763 24.042 41.2884 23.8996C41.1009 23.7567 40.9473 23.5892 40.8275 23.3956C40.7078 23.2019 40.6366 22.9856 40.6139 22.7465H46.779C46.7901 22.6437 46.7959 22.5359 46.7959 22.4219ZM43.7986 19.8597C44.0778 20.1785 44.2171 20.56 44.2171 21.0039H40.6139C40.625 20.7883 40.682 20.5804 40.7844 20.381C40.8868 20.1816 41.0235 20.0079 41.1941 19.8597C41.3654 19.7119 41.5641 19.5952 41.792 19.5097C42.0199 19.4243 42.2702 19.3815 42.5435 19.3815C43.101 19.3815 43.5195 19.5413 43.7986 19.8597ZM51.2701 23.0664V19.8089H53.2682V17.7252H51.2701V15.488H48.5203V17.7252H47.1713V19.8089H48.5377V23.4041C48.5377 23.8607 48.5885 24.2746 48.6913 24.6453C48.7937 25.0165 48.9616 25.336 49.1953 25.604C49.4282 25.8727 49.7385 26.0783 50.1258 26.2208C50.5127 26.3632 50.9913 26.4348 51.5607 26.4348C51.8568 26.4348 52.1525 26.4094 52.4489 26.3582C52.7446 26.3066 52.9895 26.2469 53.1831 26.1788L53.1489 24.1294C53.0461 24.1752 52.9183 24.2091 52.7646 24.2318C52.6106 24.2553 52.4655 24.2661 52.3292 24.2661C51.9303 24.2661 51.6543 24.1667 51.5011 23.9665C51.347 23.766 51.2701 23.4664 51.2701 23.0664ZM61.5343 19.6891C61.8419 19.8374 62.1091 20.0195 62.337 20.2355L63.8751 18.6462C63.4539 18.2477 62.9384 17.9489 62.3293 17.7495C61.7203 17.5508 61.0969 17.4507 60.4597 17.4507C60.0493 17.4507 59.6366 17.5046 59.2212 17.6132C58.8058 17.7218 58.4273 17.8892 58.0858 18.1172C57.7439 18.3451 57.4652 18.6377 57.2488 18.9965C57.032 19.3553 56.9242 19.7908 56.9242 20.3032C56.9242 20.7017 56.9982 21.0436 57.146 21.3277C57.2938 21.6126 57.4848 21.8517 57.7181 22.045C57.951 22.239 58.2155 22.3923 58.512 22.5062C58.8081 22.6202 59.1041 22.711 59.4002 22.7792C59.9812 22.9163 60.4078 23.0472 60.6811 23.1723C60.9545 23.2978 61.0908 23.4911 61.0908 23.7533C61.0908 24.0262 60.9799 24.2172 60.7577 24.325C60.536 24.4332 60.3111 24.4875 60.0832 24.4875C59.6732 24.4875 59.2859 24.3966 58.9216 24.2141C58.557 24.0324 58.2494 23.8045 57.9996 23.5311L56.4284 25.1878C56.8723 25.6205 57.4274 25.9482 58.0931 26.1699C58.7596 26.3921 59.4395 26.503 60.1344 26.503C60.5668 26.503 60.9995 26.4521 61.4323 26.3493C61.8646 26.2469 62.2546 26.0822 62.6019 25.8542C62.9492 25.6263 63.231 25.3275 63.4474 24.9576C63.6638 24.5876 63.7719 24.1356 63.7719 23.6C63.7719 23.1904 63.6919 22.8373 63.5329 22.5413C63.3731 22.2452 63.1625 21.9945 62.9007 21.7897C62.6389 21.5849 62.3459 21.4197 62.0213 21.2946C61.6968 21.1695 61.3749 21.0725 61.0561 21.0039C60.5098 20.8788 60.114 20.7652 59.8691 20.6624C59.6243 20.5596 59.5022 20.3891 59.5022 20.15C59.5022 19.9001 59.6131 19.7234 59.8353 19.6206C60.057 19.5186 60.2988 19.467 60.561 19.467C60.9025 19.467 61.2271 19.5413 61.5343 19.6891ZM69.1343 14.1385V26.2304H77.5709V23.7367H71.9522V21.2261H76.973V18.8864H71.9522V16.5979H77.2633V14.1385H69.1343ZM84.9607 21.5849V26.2304L87.7794 26.23V20.97C87.7794 20.5489 87.7251 20.1277 87.6173 19.7061C87.5091 19.2853 87.3327 18.9122 87.0879 18.5876C86.8426 18.2635 86.5215 17.9986 86.1227 17.7938C85.7238 17.5889 85.2402 17.4861 84.6708 17.4861C84.3747 17.4861 84.096 17.5266 83.8342 17.6059C83.572 17.6856 83.3302 17.7884 83.1081 17.9135C82.8863 18.0386 82.6923 18.1895 82.5275 18.3663C82.3619 18.5426 82.2287 18.7216 82.1259 18.9037H82.0917V17.7252H79.3762V26.2304H82.1941V21.6192C82.1941 21.3801 82.2253 21.1495 82.288 20.9273C82.3504 20.7056 82.4443 20.5088 82.5695 20.3383C82.6946 20.1677 82.8517 20.0337 83.0392 19.9367C83.227 19.8404 83.4465 19.7915 83.6967 19.7915C83.947 19.7915 84.1549 19.8404 84.3201 19.9367C84.4852 20.0337 84.6131 20.165 84.7043 20.3298C84.7956 20.495 84.861 20.6855 84.901 20.9019C84.9403 21.1183 84.9607 21.3458 84.9607 21.5849ZM94.3364 19.9794C94.6094 20.1049 94.8257 20.2697 94.9855 20.4745L96.6071 18.5969C96.4366 18.4259 96.2341 18.2696 96.0008 18.1272C95.7674 17.9847 95.5114 17.865 95.2323 17.7683C94.9532 17.6717 94.6629 17.5943 94.3614 17.5377C94.0596 17.4804 93.755 17.4519 93.4478 17.4519C92.7871 17.4519 92.1657 17.5574 91.5832 17.768C91.0015 17.9786 90.4952 18.28 90.0659 18.6731C89.6362 19.0658 89.2986 19.5417 89.0522 20.0992C88.8058 20.657 88.683 21.2834 88.683 21.978C88.683 22.6841 88.8058 23.3159 89.0522 23.8738C89.2986 24.4316 89.6362 24.9067 90.0659 25.2994C90.4952 25.6921 91.0011 25.9913 91.5832 26.1961C92.1657 26.4009 92.7929 26.5037 93.4647 26.5037C94.0907 26.5037 94.6829 26.4067 95.2408 26.2134C95.7982 26.0198 96.2541 25.7522 96.6071 25.4107L95.0529 23.5149C94.8823 23.7198 94.6571 23.8765 94.3783 23.9846C94.0996 24.0928 93.8174 24.1467 93.5333 24.1467C93.226 24.1467 92.95 24.0901 92.7051 23.9762C92.4599 23.8626 92.2493 23.7059 92.0729 23.5065C91.8962 23.3074 91.7626 23.0768 91.6717 22.8146C91.5805 22.5528 91.5351 22.2741 91.5351 21.978C91.5351 21.6815 91.5836 21.4032 91.6802 21.141C91.7769 20.8792 91.9112 20.6486 92.0818 20.4491C92.2527 20.2505 92.4576 20.0907 92.6966 19.971C92.9357 19.8512 93.2029 19.7915 93.4994 19.7915C93.7835 19.7915 94.063 19.8543 94.3364 19.9794ZM102.826 19.9625C102.95 19.9747 103.073 19.9975 103.193 20.0306L103.314 17.5543C103.245 17.5316 103.156 17.5142 103.049 17.5031C102.94 17.4919 102.829 17.4857 102.716 17.4857C102.192 17.4857 101.73 17.6232 101.332 17.8985C100.933 18.1738 100.626 18.5291 100.41 18.9649H100.376V17.7352H97.6771V26.23H100.478V21.8698C100.478 21.6992 100.512 21.501 100.58 21.2738C100.649 21.0467 100.76 20.8365 100.913 20.6436C101.067 20.4503 101.272 20.2859 101.528 20.1496C101.784 20.0137 102.1 19.9452 102.476 19.9452C102.59 19.9452 102.707 19.9509 102.826 19.9625ZM109.201 28.6983C109.412 28.351 109.603 27.9552 109.773 27.5113L113.582 17.7256H110.611L108.92 23.1908H108.868L106.973 17.7256H103.864L107.417 26.0941L107.144 26.794C107.007 27.1582 106.842 27.4397 106.648 27.6391C106.455 27.8382 106.142 27.9379 105.709 27.9379C105.572 27.9379 105.421 27.9236 105.257 27.8955C105.091 27.867 104.94 27.8297 104.804 27.7846L104.496 30.1413C104.701 30.1979 104.943 30.2433 105.222 30.2776C105.501 30.3118 105.771 30.3291 106.033 30.3291C106.568 30.3291 107.032 30.2664 107.425 30.1413C107.818 30.0158 108.16 29.8313 108.45 29.5865C108.74 29.3412 108.99 29.0452 109.201 28.6983ZM123.504 23.6516C123.686 23.1053 123.777 22.5359 123.777 21.9437C123.777 21.352 123.683 20.7852 123.496 20.2443C123.308 19.7038 123.04 19.2279 122.693 18.8183C122.345 18.4086 121.921 18.084 121.42 17.845C120.919 17.6059 120.362 17.4861 119.747 17.4861C119.12 17.4861 118.577 17.6143 118.116 17.8704C117.655 18.1268 117.293 18.4255 117.031 18.767H116.98V17.7252H114.316V30.3299H117.117V25.2917H117.151C117.413 25.6559 117.777 25.9435 118.244 26.1541C118.711 26.3647 119.206 26.4699 119.729 26.4699C120.367 26.4699 120.936 26.344 121.438 26.0941C121.939 25.8434 122.363 25.5104 122.71 25.0946C123.057 24.6792 123.322 24.1983 123.504 23.6516ZM120.934 21.141C121.02 21.4032 121.062 21.6704 121.062 21.9437C121.062 22.2171 121.019 22.4874 120.934 22.7542C120.849 23.0217 120.723 23.2581 120.558 23.463C120.393 23.6678 120.185 23.8333 119.935 23.9585C119.684 24.0836 119.394 24.146 119.064 24.146C118.745 24.146 118.46 24.0836 118.21 23.9585C117.959 23.8333 117.745 23.6678 117.569 23.463C117.392 23.2581 117.256 23.0252 117.16 22.763C117.062 22.5012 117.014 22.2336 117.014 21.9603C117.014 21.6869 117.062 21.4197 117.16 21.1575C117.256 20.8961 117.392 20.6624 117.569 20.4576C117.745 20.2528 117.959 20.0876 118.21 19.9625C118.46 19.8374 118.745 19.7746 119.064 19.7746C119.394 19.7746 119.684 19.837 119.935 19.9625C120.185 20.088 120.393 20.2501 120.558 20.4491C120.723 20.6486 120.849 20.8792 120.934 21.141ZM128.252 23.0664V19.8089H130.25V17.7252H128.252V15.488H125.502V17.7252H124.153V19.8089H125.52V23.4041C125.52 23.8607 125.57 24.2746 125.673 24.6453C125.776 25.0165 125.943 25.336 126.177 25.604C126.41 25.8727 126.72 26.0783 127.108 26.2208C127.495 26.3632 127.973 26.4348 128.543 26.4348C128.839 26.4348 129.134 26.4094 129.431 26.3582C129.726 26.3066 129.971 26.2469 130.165 26.1788L130.131 24.1294C130.028 24.1752 129.9 24.2091 129.746 24.2318C129.592 24.2553 129.447 24.2661 129.311 24.2661C128.912 24.2661 128.636 24.1667 128.483 23.9665C128.329 23.766 128.252 23.4664 128.252 23.0664ZM54.3308 15.2858C54.3308 14.5124 54.9888 13.9067 55.8293 13.9067C56.7668 13.9067 57.4475 14.659 57.4475 15.6955C57.4475 16.7442 57.1152 17.6186 56.4869 18.2242C56.0048 18.6885 55.3469 18.9911 54.6808 19.0546L54.536 19.0685V17.7683L54.6477 17.7506C55.1967 17.664 55.7777 17.2313 55.9098 16.6283C55.847 16.641 55.7804 16.6476 55.7099 16.6476C54.8849 16.6476 54.3308 16.1005 54.3308 15.2858ZM5.8542 14.1755H19.1465C19.714 14.1755 20.1783 14.6399 20.1783 15.2074V25.0404C20.1783 25.6079 19.714 26.0722 19.1465 26.0722H5.8542C5.2867 26.0722 4.82239 25.6079 4.82239 25.0404V15.2074C4.82239 14.6399 5.2867 14.1755 5.8542 14.1755ZM13.1739 21.9642V20.6317C13.5882 20.3965 13.8681 19.9525 13.8681 19.4424C13.8681 18.6874 13.2559 18.0749 12.5006 18.0749C11.7456 18.0749 11.133 18.687 11.133 19.4424C11.133 19.9529 11.4129 20.3968 11.8272 20.6321V21.9642C11.8272 22.3357 12.129 22.6376 12.5006 22.6376C12.8721 22.6376 13.1739 22.3361 13.1739 21.9642Z" fill="#2C3C69"/>
<path fill-rule="evenodd" clip-rule="evenodd" d="M1.29927 12.7095H4.50675C5.02651 12.7095 5.44847 12.288 5.44847 11.7678C5.44847 11.2477 5.02689 10.8261 4.50675 10.8261H1.29927C0.779125 10.8261 0.357544 11.2477 0.357544 11.7678C0.357544 12.288 0.779125 12.7095 1.29927 12.7095ZM6.16843 7.4496C6.34361 7.59398 6.55575 7.66405 6.76596 7.66405C7.03816 7.66405 7.30805 7.54701 7.49401 7.32024C7.82473 6.91829 7.76659 6.325 7.36503 5.99466L4.82784 3.90832C4.4259 3.57798 3.8326 3.63612 3.50227 4.03768C3.17155 4.43963 3.22969 5.03292 3.63125 5.36326L6.16843 7.4496ZM11.5585 4.50469C11.5585 5.02484 11.9801 5.44642 12.5002 5.44642C13.0204 5.44642 13.442 5.02484 13.442 4.50469V1.2718C13.442 0.751659 13.0204 0.330078 12.5002 0.330078C11.9801 0.330078 11.5585 0.751659 11.5585 1.2718V4.50469ZM17.5065 7.32024C17.6928 7.54701 17.9623 7.66405 18.2345 7.66405C18.4451 7.66405 18.6569 7.59398 18.832 7.4496L21.3692 5.36326C21.7708 5.03292 21.8285 4.43924 21.4982 4.03768C21.1679 3.63612 20.5746 3.57798 20.1726 3.90832L17.6354 5.99466C17.2339 6.325 17.1761 6.91868 17.5065 7.32024ZM20.4637 12.7095H23.7016C24.2217 12.7095 24.6433 12.288 24.6433 11.7678C24.6433 11.2477 24.2217 10.8261 23.7016 10.8261H20.4637C19.9435 10.8261 19.522 11.2477 19.522 11.7678C19.522 12.288 19.9435 12.7095 20.4637 12.7095ZM14.8029 14.1757H17.8983H17.8987V12.5864C17.8987 9.60996 15.4774 7.18866 12.5009 7.18866C9.52445 7.18866 7.10315 9.61034 7.10315 12.5864V14.1757H10.1986V12.5864C10.1986 11.3175 11.2312 10.2845 12.5005 10.2845C13.7699 10.2845 14.8029 11.3171 14.8029 12.5864V14.1757Z" fill="#F9A11D"/>
</svg>
