<svg width="44" height="30" viewBox="0 0 44 30" fill="none" xmlns="http://www.w3.org/2000/svg">
<path fill-rule="evenodd" clip-rule="evenodd" d="M43.6364 26.25C43.6364 28.3125 42 30 40 30H3.63636C1.63636 30 0 28.3125 0 26.25V3.75C0 1.6875 1.63636 0 3.63636 0H40C42 0 43.6364 1.6875 43.6364 3.75V26.25Z" fill="#F5F5F5"/>
<path d="M40 0H3.63636C1.63636 0 0 1.6875 0 3.75V26.25C0 28.3125 1.63636 30 3.63636 30H40C42 30 43.6364 28.3125 43.6364 26.25V3.75C43.6364 1.6875 42 0 40 0ZM40 0.75C41.6044 0.75 42.9091 2.0955 42.9091 3.75V26.25C42.9091 27.9045 41.6044 29.25 40 29.25H3.63636C2.032 29.25 0.727273 27.9045 0.727273 26.25V3.75C0.727273 2.0955 2.032 0.75 3.63636 0.75H40Z" fill="#D0D0D0"/>
<path d="M26.6947 22.7131C31.153 22.7131 34.7673 19.0988 34.7673 14.6405C34.7673 10.1821 31.153 6.56787 26.6947 6.56787C22.2363 6.56787 18.6221 10.1821 18.6221 14.6405C18.6221 19.0988 22.2363 22.7131 26.6947 22.7131Z" fill="#F79E1B"/>
<path d="M16.7999 22.6906C21.2583 22.6906 24.8725 19.0764 24.8725 14.618C24.8725 10.1596 21.2583 6.54541 16.7999 6.54541C12.3415 6.54541 8.72729 10.1596 8.72729 14.618C8.72729 19.0764 12.3415 22.6906 16.7999 22.6906Z" fill="#EB001B"/>
<path fill-rule="evenodd" clip-rule="evenodd" d="M18.6221 14.6227C18.6165 17.2175 19.8341 19.5288 21.7323 21.0102C23.638 19.5373 24.8669 17.2326 24.8734 14.6387C24.8791 12.0439 23.6615 9.73262 21.7633 8.25122C19.8566 9.72229 18.6277 12.0279 18.6221 14.6227Z" fill="#FF5F00"/>
</svg>
