<svg width="44" height="30" viewBox="0 0 44 30" fill="none" xmlns="http://www.w3.org/2000/svg">
<g clip-path="url(#clip0_4231_1273)">
<path fill-rule="evenodd" clip-rule="evenodd" d="M43.9091 26.5227C43.9091 28.5852 42.2727 30.2727 40.2727 30.2727H3.90907C1.90907 30.2727 0.272705 28.5852 0.272705 26.5227V4.02271C0.272705 1.96021 1.90907 0.272705 3.90907 0.272705H40.2727C42.2727 0.272705 43.9091 1.96021 43.9091 4.02271V26.5227Z" fill="#F5F5F5"/>
<path d="M40.2727 0.272705H3.90907C1.90907 0.272705 0.272705 1.96021 0.272705 4.02271V26.5227C0.272705 28.5852 1.90907 30.2727 3.90907 30.2727H40.2727C42.2727 30.2727 43.9091 28.5852 43.9091 26.5227V4.02271C43.9091 1.96021 42.2727 0.272705 40.2727 0.272705ZM40.2727 1.02271C41.8771 1.02271 43.1818 2.36821 43.1818 4.02271V26.5227C43.1818 28.1772 41.8771 29.5227 40.2727 29.5227H3.90907C2.3047 29.5227 0.999978 28.1772 0.999978 26.5227V4.02271C0.999978 2.36821 2.3047 1.02271 3.90907 1.02271H40.2727Z" fill="#D0D0D0"/>
<g clip-path="url(#clip1_4231_1273)">
<path fill-rule="evenodd" clip-rule="evenodd" d="M21.2721 11.0024C19.9393 11.0025 18.8589 12.0611 18.8589 13.367V21.1873C18.8589 21.3203 18.7488 21.4282 18.6131 21.4282C18.4773 21.4282 18.3672 21.3203 18.3672 21.1873V13.367C18.3672 11.795 19.6679 10.5208 21.2723 10.5208H21.2726L23.6295 10.5242C25.2294 10.5273 26.5248 11.799 26.5248 13.3666V15.0312C26.5248 16.6031 25.2241 17.8774 23.6197 17.8774H20.2895C20.1538 17.8774 20.0437 17.7696 20.0437 17.6366C20.0437 17.5036 20.1538 17.3958 20.2895 17.3958H23.6197C24.9526 17.3958 26.0332 16.3371 26.0332 15.0312V13.3666C26.0332 12.0647 24.9574 11.0085 23.6286 11.0059C23.6286 11.0059 23.6285 11.0059 23.6285 11.0059L21.2723 11.0024C21.2722 11.0024 21.2721 11.0024 21.2721 11.0024Z" fill="#939598"/>
<path fill-rule="evenodd" clip-rule="evenodd" d="M26.6918 10.7606C26.6918 10.6276 26.8018 10.5198 26.9376 10.5198H27.9599C28.6984 10.5198 29.297 11.1063 29.297 11.8298V17.6717C29.297 17.8047 29.1869 17.9125 29.0511 17.9125C28.9154 17.9125 28.8053 17.8047 28.8053 17.6717V11.8298C28.8053 11.3723 28.4268 11.0014 27.9599 11.0014H26.9376C26.8018 11.0014 26.6918 10.8936 26.6918 10.7606Z" fill="#939598"/>
<path d="M28.832 9.8555L28.3684 9.40124C28.2533 9.28854 28.2533 9.10579 28.3684 8.9931L28.8317 8.53912C28.9469 8.42625 29.1337 8.42625 29.2488 8.53912L29.7121 8.9931C29.8272 9.10579 29.8272 9.28854 29.7121 9.40124L29.2485 9.8555C29.1335 9.9682 28.947 9.9682 28.832 9.8555Z" fill="#32BCAD"/>
<path fill-rule="evenodd" clip-rule="evenodd" d="M30.7666 10.7554C30.7666 10.6224 30.8767 10.5145 31.0124 10.5145H32.0263C32.613 10.5145 33.1757 10.7429 33.5906 11.1493L35.9619 13.4727L35.9619 13.4727C36.1731 13.6796 36.5154 13.6796 36.7266 13.4727L39.0893 11.1578L39.0893 11.1578C39.5042 10.7514 40.0668 10.523 40.6536 10.523H41.4779C41.6137 10.523 41.7237 10.6309 41.7237 10.7639C41.7237 10.8969 41.6137 11.0047 41.4779 11.0047H40.6536C40.1973 11.0047 39.7596 11.1823 39.4369 11.4985L37.0743 13.8133C36.6711 14.2083 36.0174 14.2083 35.6143 13.8133C35.6143 13.8133 35.6143 13.8133 35.6143 13.8133L33.2429 11.4899C32.9203 11.1738 32.4826 10.9962 32.0263 10.9962H31.0124C30.8767 10.9962 30.7666 10.8884 30.7666 10.7554Z" fill="#939598"/>
<path fill-rule="evenodd" clip-rule="evenodd" d="M36.7266 14.9031C36.5154 14.6962 36.1731 14.6962 35.9619 14.9031L35.9619 14.9031L33.5906 17.2264C33.1757 17.6329 32.613 17.8613 32.0263 17.8613H31.0124C30.8767 17.8613 30.7666 17.7534 30.7666 17.6204C30.7666 17.4874 30.8767 17.3796 31.0124 17.3796H32.0263C32.4826 17.3796 32.9203 17.2019 33.2429 16.8858L35.6143 14.5625C35.6143 14.5625 35.6143 14.5625 35.6143 14.5625C36.0174 14.1675 36.6711 14.1675 37.0743 14.5625L39.4369 16.8773C39.7596 17.1934 40.1973 17.3711 40.6536 17.3711H41.4779C41.6137 17.3711 41.7237 17.4789 41.7237 17.6119C41.7237 17.7449 41.6137 17.8527 41.4779 17.8527H40.6536C40.0668 17.8527 39.5042 17.6244 39.0893 17.2179L39.0893 17.2179L36.7266 14.9031Z" fill="#939598"/>
<path d="M12.5687 19.1047C12.0599 19.1047 11.5813 18.9106 11.2215 18.5582L9.2763 16.6524C9.13971 16.5182 8.90168 16.5186 8.76516 16.6524L6.81283 18.5652C6.45301 18.9176 5.97444 19.1117 5.46562 19.1117H5.08228L7.54598 21.5254C8.31537 22.2793 9.56288 22.2793 10.3323 21.5254L12.803 19.1047H12.5687Z" fill="#32BCAD"/>
<path d="M5.46557 12.3634C5.97439 12.3634 6.45296 12.5575 6.81278 12.9099L8.76511 14.823C8.90571 14.9608 9.13529 14.9613 9.27625 14.8228L11.2215 12.9168C11.5813 12.5645 12.0599 12.3704 12.5687 12.3704H12.803L10.3323 9.94968C9.56282 9.19581 8.31533 9.19581 7.54593 9.94968L5.08234 12.3634L5.46557 12.3634Z" fill="#32BCAD"/>
<path d="M14.8467 14.3726L13.3536 12.9098C13.3207 12.9227 13.2851 12.9307 13.2475 12.9307H12.5687C12.2177 12.9307 11.8742 13.0702 11.6262 13.3133L9.68102 15.2192C9.49899 15.3975 9.25979 15.4867 9.02083 15.4867C8.78163 15.4867 8.54261 15.3975 8.36063 15.2193L6.40812 13.3064C6.16012 13.0632 5.81656 12.9237 5.4656 12.9237H4.63089C4.59529 12.9237 4.56202 12.9155 4.53061 12.9039L3.03162 14.3726C2.26217 15.1264 2.26217 16.3486 3.03162 17.1025L4.53055 18.5711C4.56201 18.5595 4.59529 18.5513 4.63089 18.5513H5.4656C5.81656 18.5513 6.16012 18.4119 6.40812 18.1687L8.36045 16.2559C8.71333 15.9105 9.32849 15.9104 9.68102 16.2561L11.6262 18.1617C11.8742 18.4049 12.2177 18.5444 12.5687 18.5444H13.2475C13.2851 18.5444 13.3207 18.5524 13.3536 18.5653L14.8467 17.1025C15.616 16.3486 15.616 15.1264 14.8467 14.3726Z" fill="#32BCAD"/>
<path d="M20.6397 20.5225C20.5295 20.5225 20.4013 20.5485 20.2744 20.5772V21.0537C20.3623 21.0852 20.4626 21.1003 20.5588 21.1003C20.8027 21.1003 20.9184 21.0197 20.9184 20.8092C20.9184 20.6113 20.8237 20.5225 20.6397 20.5225ZM20.1921 21.4076V20.4651H20.2591L20.2661 20.5062C20.3789 20.4802 20.5351 20.446 20.6466 20.446C20.7373 20.446 20.8237 20.4596 20.8961 20.517C20.9798 20.584 21.0063 20.6918 21.0063 20.8092C21.0063 20.9323 20.9644 21.0483 20.8501 21.1125C20.7707 21.1562 20.6634 21.1739 20.5672 21.1739C20.4682 21.1739 20.3734 21.1589 20.2744 21.1303V21.4076H20.1921Z" fill="#939598"/>
<path d="M21.6187 20.5197C21.3747 20.5197 21.266 20.5949 21.266 20.8053C21.266 21.0087 21.3733 21.1003 21.6187 21.1003C21.8612 21.1003 21.9699 21.0265 21.9699 20.8162C21.9699 20.6127 21.8627 20.5197 21.6187 20.5197ZM21.9323 21.1003C21.8514 21.1576 21.7427 21.174 21.6187 21.174C21.4918 21.174 21.383 21.1562 21.3036 21.1003C21.2144 21.0389 21.1781 20.9377 21.1781 20.8108C21.1781 20.685 21.2144 20.5827 21.3036 20.5197C21.383 20.4639 21.4918 20.446 21.6187 20.446C21.7441 20.446 21.8514 20.4639 21.9323 20.5197C22.023 20.5827 22.0577 20.685 22.0577 20.8093C22.0577 20.9364 22.0215 21.0389 21.9323 21.1003Z" fill="#939598"/>
<path d="M23.0871 21.1549L22.8152 20.5827H22.8096L22.542 21.1549H22.4681L22.1782 20.4651H22.2688L22.51 21.0442H22.5156L22.7775 20.4651H22.8528L23.1219 21.0442H23.1275L23.3631 20.4651H23.4508L23.161 21.1549H23.0871Z" fill="#939598"/>
<path d="M23.9767 20.5184C23.7509 20.5184 23.6742 20.6167 23.6603 20.7588H24.2932C24.2863 20.6018 24.2039 20.5184 23.9767 20.5184ZM23.974 21.1739C23.8387 21.1739 23.7509 21.1549 23.6812 21.0974C23.599 21.0278 23.571 20.9268 23.571 20.8107C23.571 20.7001 23.6087 20.5827 23.7022 20.5157C23.7802 20.4625 23.8764 20.446 23.9767 20.446C24.0674 20.446 24.1719 20.4556 24.2583 20.513C24.3601 20.5799 24.3797 20.6974 24.3797 20.8312H23.6575C23.6603 20.9732 23.7077 21.0989 23.9809 21.0989C24.1106 21.0989 24.2318 21.0784 24.3447 21.0593V21.1316C24.2276 21.1522 24.098 21.1739 23.974 21.1739Z" fill="#939598"/>
<path d="M24.6156 21.1549V20.4651H24.6825L24.6895 20.5062C24.8387 20.4693 24.9084 20.446 25.0394 20.446H25.0492V20.5225H25.0296C24.9195 20.5225 24.8527 20.5375 24.6979 20.5772V21.1549H24.6156Z" fill="#939598"/>
<path d="M25.5269 20.5184C25.3011 20.5184 25.2244 20.6167 25.2104 20.7588H25.8434C25.8364 20.6018 25.7541 20.5184 25.5269 20.5184ZM25.5242 21.1739C25.3888 21.1739 25.3011 21.1549 25.2314 21.0974C25.1491 21.0278 25.1212 20.9268 25.1212 20.8107C25.1212 20.7001 25.1589 20.5827 25.2523 20.5157C25.3303 20.4625 25.4266 20.446 25.5269 20.446C25.6176 20.446 25.7221 20.4556 25.8084 20.513C25.9102 20.5799 25.9298 20.6974 25.9298 20.8312H25.2077C25.2104 20.9732 25.2579 21.0989 25.531 21.0989C25.6607 21.0989 25.7819 21.0784 25.8949 21.0593V21.1316C25.7778 21.1522 25.6481 21.1739 25.5242 21.1739Z" fill="#939598"/>
<path d="M26.8308 20.5663C26.743 20.5348 26.6427 20.5198 26.5465 20.5198C26.3025 20.5198 26.1867 20.6005 26.1867 20.8108C26.1867 21.0101 26.2816 21.0975 26.4655 21.0975C26.5757 21.0975 26.704 21.0715 26.8308 21.0442V20.5663ZM26.8462 21.1549L26.8392 21.1138C26.7263 21.1398 26.5701 21.174 26.4586 21.174C26.3681 21.174 26.2816 21.1617 26.2091 21.103C26.1254 21.036 26.0989 20.9281 26.0989 20.8108C26.0989 20.6878 26.1408 20.5717 26.255 20.5089C26.3345 20.4638 26.4419 20.4461 26.5395 20.4461C26.6371 20.4461 26.7319 20.4625 26.8308 20.4898V20.1743H26.9131V21.1549H26.8462Z" fill="#939598"/>
<path d="M28.119 20.5226C28.0088 20.5226 27.8806 20.5486 27.7537 20.5773V21.0525C27.843 21.0852 27.9419 21.1004 28.0381 21.1004C28.2821 21.1004 28.3977 21.0198 28.3977 20.8093C28.3977 20.6114 28.303 20.5226 28.119 20.5226ZM28.3295 21.1125C28.25 21.1563 28.1427 21.174 28.0465 21.174C27.9419 21.174 27.8374 21.1563 27.7315 21.1221L27.7273 21.155H27.6714V20.1743H27.7537V20.5034C27.8667 20.479 28.0186 20.4461 28.1259 20.4461C28.2166 20.4461 28.303 20.4597 28.3754 20.5171C28.4591 20.5841 28.4856 20.6919 28.4856 20.8093C28.4856 20.9324 28.4437 21.0484 28.3295 21.1125Z" fill="#939598"/>
<path d="M28.5947 21.4198V21.3447C28.6351 21.3487 28.6729 21.3516 28.6993 21.3516C28.8011 21.3516 28.8624 21.3228 28.9195 21.2094L28.946 21.1549L28.5781 20.4651H28.6729L28.9879 21.0605H28.9935L29.2932 20.4651H29.3866L28.9907 21.2396C28.9182 21.3802 28.8401 21.4266 28.6965 21.4266C28.6644 21.4266 28.6296 21.4239 28.5947 21.4198Z" fill="#939598"/>
<path d="M30.5202 20.7615H30.247V21.0034H30.5215C30.7097 21.0034 30.7809 20.9828 30.7809 20.8818C30.7809 20.7738 30.6833 20.7615 30.5202 20.7615ZM30.4701 20.3696H30.247V20.6153H30.4714C30.6568 20.6153 30.7307 20.5936 30.7307 20.4911C30.7307 20.382 30.6373 20.3696 30.4701 20.3696ZM30.8938 21.0894C30.7934 21.1522 30.6721 21.1549 30.4505 21.1549H30.0337V20.2194H30.4408C30.6317 20.2194 30.7488 20.222 30.8464 20.2795C30.9161 20.3205 30.9439 20.3833 30.9439 20.4652C30.9439 20.5634 30.9022 20.6291 30.7933 20.6728V20.6782C30.9161 20.7057 30.9956 20.7671 30.9956 20.8995C30.9956 20.9896 30.9621 21.0484 30.8938 21.0894Z" fill="#939598"/>
<path d="M31.8294 20.8654C31.7471 20.8585 31.6636 20.8545 31.5757 20.8545C31.4322 20.8545 31.3819 20.8831 31.3819 20.9472C31.3819 21.0074 31.4238 21.0402 31.5338 21.0402C31.6258 21.0402 31.736 21.0197 31.8294 20.9991V20.8654ZM31.8712 21.1549L31.8656 21.1139C31.7457 21.1427 31.6064 21.174 31.4837 21.174C31.4083 21.174 31.3276 21.1644 31.2703 21.1234C31.2175 21.0866 31.1923 21.0265 31.1923 20.9568C31.1923 20.8789 31.2272 20.8066 31.3108 20.7698C31.3847 20.7356 31.4837 20.7329 31.5743 20.7329C31.6482 20.7329 31.7471 20.7369 31.8294 20.7425V20.7301C31.8294 20.6222 31.7569 20.5867 31.559 20.5867C31.4823 20.5867 31.3889 20.5907 31.2996 20.5989V20.4596C31.3986 20.4516 31.5102 20.446 31.6022 20.446C31.7248 20.446 31.8518 20.4556 31.9298 20.5102C32.0105 20.5663 32.026 20.6441 32.026 20.7465V21.1549L31.8712 21.1549Z" fill="#939598"/>
<path d="M32.9451 21.1549V20.7737C32.9451 20.6482 32.8796 20.6031 32.7624 20.6031C32.6761 20.6031 32.5674 20.6249 32.4753 20.6468V21.1549H32.2787V20.4651H32.4391L32.446 20.5088C32.57 20.4775 32.7081 20.446 32.8225 20.446C32.9088 20.446 32.9967 20.4583 33.0636 20.5171C33.1193 20.5663 33.1403 20.6344 33.1403 20.7329V21.1549H32.9451Z" fill="#939598"/>
<path d="M33.6956 21.1739C33.605 21.1739 33.5059 21.1617 33.4335 21.1016C33.3471 21.0333 33.322 20.9254 33.322 20.8092C33.322 20.7 33.3582 20.5812 33.4655 20.5143C33.5534 20.4583 33.6621 20.446 33.775 20.446C33.8559 20.446 33.9354 20.4515 34.0231 20.4596V20.6071C33.952 20.6004 33.867 20.5949 33.7987 20.5949C33.6119 20.5949 33.5241 20.6523 33.5241 20.8107C33.5241 20.9596 33.5896 21.0237 33.7429 21.0237C33.8321 21.0237 33.9368 21.0074 34.0385 20.9882V21.1302C33.9283 21.1522 33.8085 21.1739 33.6956 21.1739Z" fill="#939598"/>
<path d="M34.6191 20.5907C34.4323 20.5907 34.35 20.6481 34.35 20.8052C34.35 20.9623 34.4309 21.0293 34.6191 21.0293C34.8044 21.0293 34.8852 20.9732 34.8852 20.8161C34.8852 20.659 34.8059 20.5907 34.6191 20.5907ZM34.9564 21.1016C34.87 21.1589 34.757 21.1739 34.6191 21.1739C34.4782 21.1739 34.3654 21.1576 34.2803 21.1016C34.1827 21.0388 34.1478 20.935 34.1478 20.8107C34.1478 20.6863 34.1827 20.5812 34.2803 20.5184C34.3654 20.4624 34.4782 20.446 34.6191 20.446C34.7585 20.446 34.87 20.4624 34.9564 20.5184C35.054 20.5812 35.0874 20.6863 35.0874 20.8093C35.0874 20.9337 35.0526 21.0388 34.9564 21.1016Z" fill="#939598"/>
<path d="M36.2222 21.1739C36.1038 21.1739 35.9756 21.1549 35.8793 21.077C35.7651 20.984 35.7302 20.8407 35.7302 20.6863C35.7302 20.5484 35.7748 20.3845 35.924 20.289C36.0396 20.2153 36.1832 20.2002 36.3282 20.2002C36.4342 20.2002 36.5429 20.207 36.6614 20.2166V20.3845C36.5596 20.3763 36.4342 20.3695 36.3366 20.3695C36.0647 20.3695 35.9491 20.4706 35.9491 20.6863C35.9491 20.9064 36.0564 21.0047 36.2572 21.0047C36.3882 21.0047 36.5345 20.9787 36.6823 20.9485V21.1151C36.5345 21.144 36.3798 21.1739 36.2222 21.1739Z" fill="#939598"/>
<path d="M37.2599 20.569C37.0968 20.569 37.034 20.6264 37.0215 20.7316H37.4955C37.4899 20.6195 37.423 20.569 37.2599 20.569ZM37.2305 21.174C37.1149 21.174 37.0103 21.1604 36.9323 21.0974C36.8486 21.0293 36.8193 20.9268 36.8193 20.8093C36.8193 20.7041 36.8542 20.5867 36.9518 20.5184C37.0382 20.4583 37.1484 20.446 37.2599 20.446C37.3603 20.446 37.4788 20.457 37.5651 20.5157C37.6781 20.5936 37.6878 20.7138 37.6892 20.8558H37.0201C37.0243 20.961 37.0814 21.0293 37.2794 21.0293C37.402 21.0293 37.5386 21.0115 37.6544 20.9938V21.129C37.5192 21.1509 37.3714 21.174 37.2305 21.174Z" fill="#939598"/>
<path d="M38.5637 21.1549V20.7737C38.5637 20.6482 38.4982 20.6031 38.381 20.6031C38.2946 20.6031 38.186 20.6249 38.0939 20.6468V21.1549H37.8973V20.4651H38.0576L38.0646 20.5088C38.1886 20.4775 38.3267 20.446 38.4411 20.446C38.5274 20.446 38.6153 20.4583 38.6822 20.5171C38.7379 20.5663 38.7589 20.6344 38.7589 20.7329V21.1549H38.5637Z" fill="#939598"/>
<path d="M39.3183 21.1739C39.2236 21.1739 39.1371 21.148 39.0897 21.0756C39.0549 21.0264 39.0381 20.9596 39.0381 20.8667V20.6085H38.8959V20.4651H39.0381L39.0591 20.2561H39.2333V20.4651H39.5107V20.6085H39.2333V20.8298C39.2333 20.8831 39.2375 20.9281 39.2528 20.9609C39.2737 21.0074 39.3197 21.0251 39.381 21.0251C39.427 21.0251 39.4828 21.0182 39.5218 21.0115V21.1493C39.4577 21.1617 39.3838 21.1739 39.3183 21.1739Z" fill="#939598"/>
<path d="M39.7025 21.1549V20.4651H39.8628L39.8698 20.5088C39.9994 20.4733 40.0956 20.446 40.2183 20.446C40.2238 20.446 40.2322 20.446 40.2433 20.4473V20.6113C40.221 20.61 40.1945 20.61 40.175 20.61C40.0788 20.61 40.0064 20.6208 39.899 20.6455V21.1549L39.7025 21.1549Z" fill="#939598"/>
<path d="M40.9579 20.8654C40.8756 20.8585 40.792 20.8545 40.7042 20.8545C40.5606 20.8545 40.5104 20.8831 40.5104 20.9472C40.5104 21.0074 40.5522 21.0402 40.6623 21.0402C40.7544 21.0402 40.8645 21.0197 40.9579 20.9991V20.8654ZM40.9997 21.1549L40.9942 21.1139C40.8743 21.1427 40.7349 21.174 40.6122 21.174C40.5369 21.174 40.456 21.1644 40.3988 21.1234C40.346 21.0866 40.3208 21.0265 40.3208 20.9568C40.3208 20.8789 40.3557 20.8066 40.4393 20.7698C40.5132 20.7356 40.6121 20.7329 40.7028 20.7329C40.7767 20.7329 40.8757 20.7369 40.9579 20.7425V20.7301C40.9579 20.6222 40.8854 20.5867 40.6874 20.5867C40.6108 20.5867 40.5173 20.5907 40.4281 20.5989V20.4596C40.5271 20.4516 40.6387 20.446 40.7307 20.446C40.8533 20.446 40.9802 20.4556 41.0583 20.5102C41.1391 20.5663 41.1545 20.6441 41.1545 20.7465V21.1549L40.9997 21.1549Z" fill="#939598"/>
<path d="M41.4072 20.1743H41.6038V21.1549H41.4072V20.1743Z" fill="#939598"/>
</g>
</g>
<defs>
<clipPath id="clip0_4231_1273">
<rect width="43.6364" height="30" fill="white" transform="translate(0.272705)"/>
</clipPath>
<clipPath id="clip1_4231_1273">
<rect width="39.2727" height="13.6364" fill="white" transform="translate(2.45453 8.45447)"/>
</clipPath>
</defs>
</svg>
