<svg width="107" height="66" viewBox="0 0 107 66" fill="none" xmlns="http://www.w3.org/2000/svg">
<path d="M105.983 26.0286C105.379 26.1904 104.782 25.939 104.18 26.0879C101.598 30.3127 100.279 32.8032 95.8135 35.477C92.3065 37.7776 92.0444 36.054 94.0228 33.1667C95.2309 31.7408 99.4941 26.5905 97.0378 25.1312C95.7013 24.6038 94.0325 25.0934 92.8124 25.6823C90.3917 26.844 87.8265 27.6357 85.3292 28.615C84.8524 28.6657 85.3292 27.6572 85.3594 27.256C85.4824 25.6252 84.5234 23.7689 82.724 24.0785C81.8082 24.236 81.1588 24.9414 80.6949 25.7287C80.0164 26.8796 79.7402 27.873 79.9085 28.9958C80.0024 29.6181 80.0952 29.9643 80.285 30.4292C80.4501 30.8326 81.0013 31.3136 80.6583 31.7267C78.7543 34.4049 76.2538 36.7282 73.2473 38.1044C71.2376 39.0007 68.7749 38.7645 67.3531 36.9665C66.8536 36.4208 68.6605 35.7359 69.3229 35.3983C76.6615 31.6599 81.833 24.3578 85.6097 17.0418C86.6593 14.8652 87.6151 12.639 88.0412 10.2542C88.5816 7.43912 88.0465 2.92739 84.094 4.35004C80.8438 5.52031 77.9474 7.28812 75.901 9.89291C72.3595 13.7057 69.7058 18.2099 67.3844 22.8694C66.0068 25.8582 64.5333 28.9386 64.2851 32.2423C64.2204 33.1106 64.0144 34.1018 64.146 35.0175C64.1967 35.2052 64.1244 35.353 63.9335 35.4382C62.3887 36.1727 60.8364 36.9471 59.1924 37.4185C56.186 38.4927 57.9594 35.3217 58.8267 34.1697C59.885 32.3599 61.0036 30.5802 62.0975 28.7951C62.7512 27.6842 63.393 26.5927 64.1277 25.5378C64.4675 25.0525 63.6325 25.1474 63.3607 25.1075C61.8245 25.1355 60.2917 25.0309 58.7555 25.0352C58.406 24.9856 57.9972 24.9122 57.8095 25.293C56.3801 27.8611 54.7124 30.2825 52.8991 32.5885C51.9562 33.7437 51.2583 35.1653 49.8797 35.9149C47.4881 37.1866 46.9218 34.4771 47.9261 32.8129C49.1947 31.113 51.4481 27.8816 53.8796 29.0961C54.4675 29.1737 55.3316 28.0466 55.9163 27.7349C56.0608 27.6216 56.2086 27.4901 56.2248 27.2905C56.2895 26.4514 54.7124 24.6577 53.8149 24.3719C51.0598 23.496 48.2907 25.2175 46.0167 26.5808C45.0318 27.3434 43.9854 28.0455 43.1656 28.9915C42.9218 29.2449 42.7611 29.3032 42.4547 29.1403C38.2541 27.7122 40.0437 30.1477 38.3566 25.6122C38.225 25.1948 39.075 25.3534 39.6068 25.2358C40.8258 25.0924 42.0049 24.6717 43.1526 24.2381C48.3986 22.1014 55.2572 15.0432 50.652 9.42156C47.8322 6.56223 43.0297 6.99043 39.5033 8.07872C35.3393 8.97718 37.2379 9.93066 37.1203 3.34049C37.1505 2.28131 37.1193 1.24048 36.842 0.212584C36.6068 -0.571549 35.3976 1.04633 34.9607 1.31274C33.0287 2.9619 30.9499 4.6898 28.5454 5.54728C28.3059 5.59473 27.8982 5.63356 28.046 6.12756C28.1733 6.5536 28.2272 7.01955 28.2768 7.46069C28.4699 9.18535 28.5821 10.923 28.4246 12.6573C28.2509 13.2764 27.7677 13.2624 27.0233 13.737C25.9079 14.4478 24.8227 15.1985 23.7375 15.9524C18.9414 19.7695 13.4452 24.0666 10.9587 29.8004C9.67612 32.7762 11.6944 35.4392 14.8066 35.6356C17.3287 35.752 19.6631 34.4782 21.6275 33.0264C26.4387 29.4714 30.3059 24.6922 33.1333 19.446C33.4915 18.7966 33.7158 18.1042 33.937 17.401C33.9683 17.3179 34.0125 17.2413 34.1236 17.2521C36.0189 16.8627 40.1128 15.9783 40.143 18.9336C40.1613 20.695 36.7169 23.1067 34.1678 23.139C33.8625 23.1423 33.8162 23.3299 33.5756 23.6471C33.3588 23.9329 32.7331 24.6577 33.0837 24.895C34.0448 25.5454 34.5723 26.7016 34.8237 27.8244C34.8819 28.0854 35.0211 28.6722 34.8064 28.6927C21.1323 29.9956 8.18854 42.9041 2.20045 54.6273C0.805642 57.684 -2.2008 64.011 2.68265 65.4962C8.25973 67.1929 14.1087 64.3076 18.7602 61.2509C26.0417 56.3283 32.1905 49.6205 36.4698 41.9582C37.8409 39.0514 39.5248 35.7585 39.0017 32.4796C38.8992 32.2531 39.1074 32.0773 39.349 32.142C39.8851 32.2876 40.7675 32.073 40.6866 32.6781C38.4137 35.8577 39.7988 42.2257 44.5852 41.3963C45.8365 41.2129 47.0437 40.7006 48.1386 40.0416C48.7589 39.6943 49.3392 39.2866 49.9034 38.8551C50.2594 38.5941 50.1925 39.2057 50.227 39.3977C51.5808 42.7327 56.515 40.9746 59.0802 40.2573C60.3424 39.8075 61.57 39.2801 62.8407 38.8648C63.3585 38.689 63.9335 38.2328 64.4858 38.3094C69.2937 45.1659 79.1728 38.6847 82.8136 33.6348C83.641 32.677 83.3918 31.9047 84.8039 31.3805C86.8157 30.6341 90.8221 29.1468 88.066 32.828C84.9689 36.3399 81.066 42.0089 89.2288 40.8645C91.6636 40.5334 94.053 39.5239 96.2018 38.3676C91.3583 46.7418 86.0347 54.9735 81.2645 63.3542C82.9139 62.6962 87.2321 61.0708 87.3799 61.019C88.1835 60.7246 89.0908 60.4636 89.9548 60.3212C91.0487 60.1184 92.1112 59.8444 93.2374 59.8498C94.0756 59.9394 93.8642 59.2124 93.9958 58.6666C94.8286 47.747 100.753 38.153 105.768 28.6592C106.182 27.873 106.722 26.995 107 26.2162C106.734 26.0124 106.318 26.0286 105.981 26.0286H105.983ZM72.5289 21.972C73.0769 21.1383 77.7219 16.0818 77.6356 19.1375C77.1685 22.7971 74.8277 25.952 72.5159 28.7067C71.0532 30.2868 69.5764 31.8605 67.7813 33.0739C67.6756 33.1494 67.4006 33.432 67.3639 33.1688C68.0316 29.0583 70.0143 25.2563 72.5289 21.972ZM25.8205 20.7877C24.2887 24.3395 21.8659 27.435 19.0331 30.0517C17.7526 31.0106 16.621 32.4753 14.8907 32.5627C12.8659 32.5853 13.9177 30.0258 14.606 29.0421C15.8044 26.9713 17.7116 25.4418 19.4743 23.8649C21.2337 22.3646 23.1636 21.1027 25.2229 20.0618C26.3308 19.4093 26.1086 19.927 25.8216 20.7877H25.8205ZM34.759 33.6628C32.1775 39.8237 28.7817 46.0644 22.8497 49.2031C21.3643 49.9915 15.3891 53.2489 15.3017 49.956C16.1669 43.7487 26.2445 35.5007 31.965 33.5345C32.8075 33.1915 33.6932 32.9984 34.5659 32.7546C35.2433 32.5853 34.9068 33.3112 34.76 33.6617L34.759 33.6628Z" fill="white"/>
</svg>
