<svg width="45" height="30" viewBox="0 0 45 30" fill="none" xmlns="http://www.w3.org/2000/svg">
<path fill-rule="evenodd" clip-rule="evenodd" d="M44.2728 26.25C44.2728 28.3125 42.6365 30 40.6365 30H4.27284C2.27284 30 0.636475 28.3125 0.636475 26.25V3.75C0.636475 1.6875 2.27284 0 4.27284 0H40.6365C42.6365 0 44.2728 1.6875 44.2728 3.75V26.25Z" fill="#F5F5F5"/>
<path d="M40.6365 0H4.27284C2.27284 0 0.636475 1.6875 0.636475 3.75V26.25C0.636475 28.3125 2.27284 30 4.27284 30H40.6365C42.6365 30 44.2728 28.3125 44.2728 26.25V3.75C44.2728 1.6875 42.6365 0 40.6365 0ZM40.6365 0.75C42.2408 0.75 43.5456 2.0955 43.5456 3.75V26.25C43.5456 27.9045 42.2408 29.25 40.6365 29.25H4.27284C2.66847 29.25 1.36375 27.9045 1.36375 26.25V3.75C1.36375 2.0955 2.66847 0.75 4.27284 0.75H40.6365Z" fill="#D0D0D0"/>
<path fill-rule="evenodd" clip-rule="evenodd" d="M29.4416 10.6155L29.6311 9.73084C29.6125 9.72326 29.5954 9.71611 29.5791 9.70931C29.5466 9.69575 29.5174 9.68359 29.4866 9.67227C28.219 9.23493 26.9306 9.14236 25.6252 9.46541C24.7401 9.68455 23.9599 10.0936 23.3912 10.8322C22.6252 11.8278 22.3616 13.4903 23.8371 14.5907C24.1204 14.8021 24.4306 14.9769 24.7409 15.1518C24.9147 15.2498 25.0885 15.3478 25.2577 15.4522C25.3177 15.4892 25.3782 15.5258 25.4388 15.5624L25.4388 15.5624L25.4389 15.5625C25.6951 15.7174 25.9528 15.8731 26.1758 16.0671C26.5423 16.3864 26.5131 16.9154 26.1211 17.2025C25.9114 17.3555 25.6516 17.4717 25.3975 17.5284C24.7448 17.6748 24.0864 17.6115 23.4469 17.4377C23.1524 17.3573 22.865 17.2501 22.5741 17.1416L22.5741 17.1416C22.4414 17.0921 22.3079 17.0423 22.1727 16.9947C22.087 17.3979 21.9998 17.8059 21.9117 18.2186L21.9114 18.2198C21.8441 18.5348 21.7762 18.8525 21.708 19.1729C21.7417 19.1859 21.7741 19.1987 21.8057 19.2112L21.8057 19.2112C21.8795 19.2402 21.9486 19.2675 22.0187 19.2919C22.6261 19.5035 23.2542 19.615 23.8928 19.6669C24.9082 19.7491 25.9123 19.6962 26.8758 19.325C27.9271 18.9198 28.7158 18.2463 29.0351 17.1232C29.3742 15.9302 29.0417 14.9119 28.0423 14.1789C27.7777 13.9848 27.4907 13.8216 27.2037 13.6584C27.0646 13.5793 26.9255 13.5002 26.7889 13.4176C26.6902 13.3577 26.5901 13.2998 26.49 13.2419C26.2488 13.1024 26.0076 12.9629 25.7867 12.796C25.3777 12.4871 25.3909 12.0054 25.8112 11.7135C26.0011 11.5813 26.2354 11.4849 26.463 11.4405C27.0959 11.3177 27.725 11.3914 28.3418 11.5624C28.533 11.6154 28.7207 11.6807 28.9119 11.7473C29.0002 11.778 29.0892 11.809 29.1796 11.8392C29.2669 11.4303 29.3542 11.0233 29.4416 10.6155ZM34.7897 13.9267C34.9303 14.6008 35.0715 15.2778 35.2144 15.9614H35.2133C34.4835 15.9614 33.7868 15.9614 33.056 15.9604C33.5094 14.7117 33.9562 13.479 34.403 12.2463C34.4153 12.2482 34.4276 12.2491 34.4398 12.2501C34.5565 12.8083 34.6729 13.3665 34.7897 13.9267ZM29.4902 18.4201C29.3363 18.7876 29.1832 19.155 29.0283 19.5281C29.0409 19.5308 29.0511 19.5335 29.0598 19.5359C29.0755 19.54 29.0864 19.5429 29.0973 19.5423L29.4892 19.5428C30.2077 19.5439 30.9263 19.5449 31.6448 19.5385C31.6987 19.5385 31.7799 19.4715 31.8007 19.4167C31.9546 19.0152 32.102 18.6119 32.239 18.2048C32.2824 18.0754 32.3457 18.0328 32.4817 18.0338C33.4679 18.0395 34.455 18.0413 35.4411 18.0328C35.6036 18.0319 35.6678 18.0763 35.6971 18.2388C35.753 18.5478 35.8184 18.8543 35.8843 19.1626L35.8843 19.1627L35.8843 19.1627C35.9108 19.287 35.9374 19.4115 35.9635 19.5366H38.3655C38.3644 19.5294 38.3633 19.5223 38.3623 19.5153C38.36 19.5002 38.3579 19.4855 38.3558 19.471L38.3558 19.4707L38.3557 19.4705C38.3489 19.4234 38.3425 19.379 38.3334 19.3354L38.0914 18.1791L38.0909 18.1767L38.0897 18.171C37.4936 15.3229 36.8974 12.4747 36.3063 9.62508C36.2771 9.48528 36.2204 9.45883 36.0938 9.45978C35.4298 9.4645 34.7667 9.4645 34.1026 9.46167C33.5227 9.45978 33.1278 9.72993 32.9058 10.2608C32.2398 11.8526 31.5735 13.444 30.9072 15.0353L30.9033 15.0448L29.4902 18.4201ZM22.0645 9.47768L22.0042 9.76843C21.9563 9.9996 21.9089 10.2286 21.8595 10.4572L21.4302 12.4636L21.4301 12.4639C20.9426 14.7412 20.4551 17.0186 19.9732 19.2966C19.9326 19.4884 19.8674 19.5536 19.6653 19.5489C19.148 19.5385 18.6307 19.5402 18.1134 19.5419C17.9194 19.5426 17.7254 19.5432 17.5315 19.5432H17.3104L17.3717 19.2545L17.3717 19.2543C17.4163 19.0441 17.4595 18.8405 17.5031 18.6373L17.962 16.4933L17.9627 16.4903C18.4539 14.1955 18.9452 11.9006 19.4348 9.6052C19.4546 9.51168 19.4754 9.45784 19.5888 9.45784C20.1455 9.46115 20.7018 9.46121 21.2582 9.46128H21.2582C21.4967 9.46131 21.7352 9.46134 21.9738 9.46162C21.9867 9.46269 21.9995 9.46527 22.0165 9.46868L22.0165 9.46869C22.0295 9.4713 22.0449 9.4744 22.0645 9.47768ZM6.34037 9.46162H6.14673C6.13445 9.52396 6.12595 9.56458 6.11651 9.6033C6.11212 9.62668 6.10799 9.65006 6.10372 9.67422C6.09971 9.69691 6.09558 9.72028 6.091 9.74499C6.11074 9.75037 6.12856 9.75548 6.14525 9.76027C6.17251 9.76808 6.19675 9.77503 6.22136 9.78089C7.02331 9.97358 7.81298 10.2003 8.56109 10.5573C8.9342 10.7349 9.1524 11.0117 9.25536 11.4112C9.63628 12.8964 10.0201 14.3807 10.404 15.8649C10.7074 17.038 11.0108 18.2111 11.3127 19.3845C11.3438 19.5054 11.3873 19.546 11.5148 19.5451C12.3272 19.5385 13.1404 19.5385 13.9537 19.5451C14.086 19.547 14.1389 19.4969 14.1861 19.3835C15.1697 17.0313 16.1549 14.6801 17.1401 12.3288C17.504 11.4603 17.8679 10.5918 18.2317 9.72327C18.2555 9.66713 18.277 9.61008 18.301 9.54629C18.3113 9.51884 18.3221 9.49014 18.3338 9.45973H18.1307C17.9237 9.45973 17.7166 9.45999 17.5095 9.46026C16.9397 9.461 16.3696 9.46174 15.7994 9.45689C15.654 9.45595 15.5831 9.49562 15.5274 9.63825C14.77 11.5677 14.0066 13.4957 13.2432 15.4234C13.1563 15.6427 13.0695 15.862 12.9827 16.0813C12.9668 16.122 12.9483 16.1614 12.9261 16.2088C12.9153 16.2318 12.9037 16.2566 12.8911 16.2844C12.8846 16.2668 12.8798 16.254 12.8761 16.2444C12.8695 16.2271 12.8668 16.2199 12.8656 16.2126L11.7944 10.5479C11.6593 9.83378 11.2125 9.46162 10.4833 9.46162C9.56267 9.46099 8.64201 9.4612 7.72136 9.46141C7.26103 9.46151 6.8007 9.46162 6.34037 9.46162Z" fill="#152884"/>
</svg>
