<svg width="29" height="25" viewBox="0 0 29 25" fill="none" xmlns="http://www.w3.org/2000/svg">
<path d="M25.918 3.03342C25.2583 2.38877 24.475 1.87738 23.6128 1.52848C22.7507 1.17958 21.8266 1 20.8934 1C19.9602 1 19.0361 1.17958 18.1739 1.52848C17.3118 1.87738 16.5285 2.38877 15.8688 3.03342L14.4996 4.36955L13.1305 3.03342C12.4706 2.38898 11.6873 1.87778 10.8252 1.52901C9.96304 1.18024 9.03902 1.00073 8.10586 1.00073C7.17271 1.00073 6.24869 1.18024 5.38657 1.52901C4.52445 1.87778 3.7411 2.38898 3.08126 3.03342C2.42142 3.67786 1.898 4.44293 1.5409 5.28493C1.1838 6.12693 1 7.02939 1 7.94077C1 8.85214 1.1838 9.7546 1.5409 10.5966C1.898 11.4386 2.42142 12.2037 3.08126 12.8481L4.45041 14.1853L14.4996 24L24.5488 14.1853L25.918 12.8481C26.578 12.2038 27.1016 11.4388 27.4589 10.5967C27.8161 9.75472 28 8.85221 28 7.94077C28 7.02932 27.8161 6.12681 27.4589 5.28479C27.1016 4.44277 26.578 3.67774 25.918 3.03342Z" stroke="white" stroke-width="2" stroke-linecap="round" stroke-linejoin="round"/>
</svg>
